<?xml version="1.0" encoding="UTF-8"?>
<!DOCTYPE svg PUBLIC "-//W3C//DTD SVG 1.1//EN" "http://www.w3.org/Graphics/SVG/1.1/DTD/svg11.dtd">
<!-- Creator: CorelDRAW -->
<svg xmlns="http://www.w3.org/2000/svg" xml:space="preserve" width="5.00742cm" height="5cm" version="1.1" style="shape-rendering:geometricPrecision; text-rendering:geometricPrecision; image-rendering:optimizeQuality; fill-rule:evenodd; clip-rule:evenodd"
viewBox="0 0 4970.71 4963.35"
 xmlns:xlink="http://www.w3.org/1999/xlink"
 xmlns:xodm="http://www.corel.com/coreldraw/odm/2003">
 <defs>
  <style type="text/css">
   <![CDATA[
    .fil1 {fill:none;fill-rule:nonzero}
    .fil2 {fill:#FEFEFE}
    .fil0 {fill:#FEFEFE;fill-rule:nonzero}
   ]]>
  </style>
 </defs>
 <g id="Layer_x0020_1">
  <metadata id="CorelCorpID_0Corel-Layer"/>
  <g id="_2128475719552">
   <g>
    <path class="fil0" d="M2748.1 2356.93c-0.28,-22.29 0.36,-42.39 1.47,-60.12 1.16,-17.55 3.55,-32.63 7.67,-44.89 4.01,-12.23 10.22,-21.8 18.58,-28.41 8.65,-6.33 20.13,-9.7 34.87,-9.7 10.04,0 18.25,0.21 25.43,0.21 6.87,0.26 13.56,0.41 19.51,0.57 6.46,0.28 13.43,0.49 21.08,0.49 15.06,-0.21 27.95,-2.96 38.76,-7.82 10.63,-5.17 19.56,-11.97 26.28,-19.84 6.9,-7.93 11.81,-16.52 15,-25.63 3.37,-9.06 4.79,-18.02 4.79,-26.12 0,-4.09 -0.67,-9.06 -1.93,-14.64 -1.52,-5.56 -3.86,-11.38 -7.31,-16.86 -3.4,-5.79 -8.03,-10.53 -13.85,-14.13 -5.71,-3.73 -12.89,-5.48 -21.52,-5.69 -4.97,21.26 -13.18,37.83 -24.3,49.29 -10.96,11.68 -24.3,19.48 -39.81,23.83 -15.62,4.32 -32.66,6.33 -50.96,6.25l-169.97 0c-36.86,0.08 -67.2,4.56 -91.03,12.95 -23.76,8.13 -42.16,19.05 -55.23,31.94 -13.13,12.87 -22.37,26.61 -27.41,40.92 -5.17,14.13 -7.57,27.13 -7.39,39.45 0.18,23.34 4.48,44.29 13.05,62.51 8.62,17.99 20.44,32.15 35.39,42.39 14.93,10.37 31.76,15.42 51.04,15.75 12.12,-0.33 21.88,-2.96 29.01,-8.44 7.26,-4.99 12.66,-11.09 16.29,-17.86 3.4,-6.92 5.79,-12.87 6.82,-18.09 1.16,-5.28 1.67,-8.11 1.52,-8.29 -6.07,0 -13.59,-1.16 -22.44,-3.19 -8.78,-2.26 -17.81,-6.15 -26.46,-11.17 -9.14,-5.12 -16.42,-11.58 -22.26,-20.07 -6.1,-8.16 -9.21,-18.4 -9.24,-30.29 0.03,-24.71 9.81,-43.21 28.59,-56 18.87,-12.69 45.45,-19.02 79.76,-19.02 9.99,-0.18 18.09,0.82 24.12,2.81 6.05,1.88 10.5,5.69 13.07,11.22 2.86,5.74 4.17,14.13 4.17,25.12 0,22.49 0,40.82 0,55.15 0,14.13 -0.18,25.97 -0.46,35.13 0,8.96 -0.08,16.7 -0.51,23.39 -0.33,6.69 -0.8,13.41 -1.29,20.51 0,26.64 -5.58,51.73 -16.68,75.38 -11.25,23.55 -27.92,44.29 -49.57,62.39 -22.01,17.81 -49.08,31.94 -81.2,42.23 -32.25,10.14 -69.59,15.47 -111.8,15.52 -17.91,0 -37.63,-2.01 -59.07,-6.67 -21.67,-4.4 -43.01,-11.4 -64.45,-21.05 -21.44,-9.81 -41.31,-22.29 -59.14,-37.58 -17.81,-15.26 -32.35,-33.72 -43.26,-55.26 -10.73,-21.64 -16.29,-46.61 -16.68,-74.97 0.08,-20.51 3.96,-39.43 11.5,-56.72 7.72,-17.5 17.99,-32.45 31.3,-45.35 13.43,-13.05 28.98,-22.88 46.3,-30.24 17.42,-7.15 36.29,-10.81 56.24,-10.81 15.47,0.21 28.13,1.9 37.63,5.28 9.7,3.35 17.17,7.34 22.44,11.68 5.17,4.53 8.98,8.62 11.43,12.17 8.29,-10.27 13.43,-19.59 15.85,-27.82 2.52,-8.62 3.27,-15.85 3.14,-21.39 -0.36,-12.74 -4.99,-23.34 -14.39,-31.63 -9.24,-8.36 -21.16,-15.78 -35.67,-22.34 -14.77,-6.64 -30.22,-13.33 -46.66,-20.25 -16.37,-7 -31.79,-15.13 -46.48,-24.99 -14.54,-9.65 -26.53,-21.93 -35.83,-36.55 -9.32,-14.67 -14,-33.2 -14.36,-55.39 0.21,-17.27 3.78,-33.2 10.78,-47.54 7.08,-14.03 16.75,-26.46 29.11,-36.68 12.17,-10.32 26.02,-17.99 41.8,-23.68 15.62,-5.58 32.02,-8.42 49.11,-8.42 15.6,-0.08 31.35,2.06 47.36,6.92 15.75,4.74 30.58,12.87 43.96,24.5 13.43,11.48 24.17,27.51 32.3,47.82 8.39,20.51 12.51,46.17 12.71,77.34 6.92,0 14.21,-1.78 21.82,-4.79 7.59,-3.37 14.98,-8.08 21.82,-14.23 6.82,-6.13 12.59,-13.69 16.75,-22.52 4.35,-8.83 6.46,-18.81 6.61,-29.91 0.18,-18.76 -3.47,-36.29 -10.76,-52.89 -7.39,-16.75 -19.17,-31.42 -35.16,-44.24 -16.06,-12.92 -36.91,-22.98 -62.93,-30.4 -26.02,-7.36 -57.42,-11.02 -94.51,-11.2 -34.13,0.18 -63.49,3.83 -88.23,10.99 -24.71,7.31 -45.43,16.78 -61.97,28.88 -16.57,11.81 -29.65,25.63 -39.61,40.2 -9.7,14.95 -16.73,29.93 -20.9,45.53 -4.25,15.36 -6.28,30.27 -6.13,44.29 -0.15,23.24 3.45,44.58 11.3,64.06 7.75,19.46 20.8,37.37 38.76,53.69 18.35,16.24 42.83,31.19 73.94,45.43 -19.07,2.42 -38.63,8.13 -58.22,16.75 -19.59,8.83 -37.42,20.85 -54.05,36.34 -16.42,15.62 -29.75,34.56 -39.89,57.14 -10.06,22.73 -15.03,49.47 -15.47,79.86 0.21,31.45 6.18,60.38 17.76,86.5 11.68,26.1 27.9,49.11 48.75,69.21 20.8,20.28 45.14,37.27 72.86,51.27 27.85,13.87 57.75,24.4 90.03,31.58 32.38,6.97 65.73,10.66 100.43,10.66 49.93,0 95.3,-5.95 136.43,-17.63 41,-11.89 76.44,-29.57 106.27,-53.04 30.03,-23.65 52.91,-52.99 69.03,-88.15 16.29,-35.26 24.35,-76.03 24.63,-122.89z"/>
    <path class="fil0" d="M3487.29 1653.75c-14.31,0.18 -25.84,-0.77 -35.11,-2.91 -9.01,-2.55 -13.74,-7.39 -14.13,-15 0,-3.27 0.54,-7.1 1.96,-10.89 1.13,-4.07 3.17,-8.03 5.92,-12.56 1.24,-2.75 6.25,-10.78 14.54,-24.27 8.34,-13.64 19.38,-31.01 32.76,-52.04 13.54,-21.21 28.72,-44.7 45.07,-70.13 16.68,-25.38 33.72,-51.42 51.42,-78.09 17.35,-26.61 34.85,-52.12 51.24,-76.54 16.63,-24.66 31.68,-46.38 45.25,-65.58 13.07,-17.66 26.12,-30.29 39.48,-38.09 13.43,-7.44 26.38,-11.27 38.89,-11.2l18.97 0 0 -33.38c-0.39,0 -5.04,0.31 -14.36,0.98 -9.42,0.51 -21.26,0.9 -36.19,1.47 -14.8,0.46 -30.73,0.9 -47.92,0.9 -26.12,0 -51.53,-0.44 -75.87,-1.16 -24.4,-0.69 -49,-1.6 -73.22,-2.19 -23.83,-0.82 -48.85,-1.26 -74.41,-1.26 -34.72,0 -65.29,3.45 -92.04,10.17 -26.74,6.82 -47.87,17.63 -63.31,31.97 -15.34,14.64 -23.21,33.35 -23.55,56.49 0.31,13.61 3.4,26.15 9.63,37.04 6.1,11.12 13.92,20.1 23.39,26.71 9.52,6.72 19.41,9.96 29.67,10.17 -1.24,-4.22 -1.75,-7.82 -1.96,-10.89 -0.44,-3.14 -0.44,-6.59 -0.44,-10.27 0.44,-20.1 5.33,-37.24 15,-51.19 9.68,-13.95 22.44,-25.56 37.91,-33.92 15.34,-8.67 31.99,-14.95 49.49,-18.84 17.66,-3.83 34.56,-5.97 50.88,-5.97 5.15,0 12.1,0.1 20.46,0.1 8.42,0.31 17.27,0.44 26.79,0.44 9.55,0.13 18.38,0.41 26.74,0.57 8.31,0 14.95,0 19.97,0 7.64,-0.15 13.69,0.59 17.55,2.03 3.89,1.47 5.77,4.99 5.77,10.37 -0.1,6.28 -2.88,15.39 -8.42,27.33 -5.38,12.15 -12.46,25.84 -21.46,41.82 -9.06,15.55 -18.81,32.15 -29.98,49.36 -10.86,17.4 -22.11,34.74 -33.43,51.73 -11.09,16.96 -21.8,32.45 -31.86,47.05 -34.13,50.37 -64.37,92.63 -90.13,127.19 -25.92,34.67 -48.49,61.05 -67.46,78.91 -19.07,17.84 -35.62,26.82 -49.23,26.95l-15.57 0 0 29.16c0,0 2.24,0 6.51,0 4.32,0 10.76,0 19.28,0 46.4,0 85.91,0.08 119.14,0.28 33.17,0.39 61.23,0.54 84.08,1.13 22.85,0.41 42.05,0.72 57.39,1.24 15.44,0.36 28.67,1.08 39.33,1.39 10.94,0.41 20.74,0.85 29.93,1.03 9.14,0.33 18.61,0.54 28.77,0.54 27.98,-0.54 51.99,-5.33 71.91,-14.67 19.74,-9.42 34.87,-21.54 45.27,-36.39 10.45,-15 15.93,-30.78 15.93,-47.36 -0.23,-10.11 -2.19,-18.56 -6.13,-25.02 -4.04,-6.51 -8.31,-11.81 -13.54,-15.49 -4.97,-3.65 -9.47,-6.28 -13.41,-7.72 -3.86,-1.65 -5.89,-2.32 -6.07,-2.32 -3.86,18.84 -11.74,35.85 -23.65,51.11 -11.84,15 -29.37,27.08 -51.73,36.13 -22.62,8.75 -51.83,13.31 -87.81,13.56l-93.91 0z"/>
    <path class="fil0" d="M3080.44 1450.3c16.68,0.15 31.17,-0.13 43.16,-1.29 11.94,-1.08 21.82,-4.04 29.44,-8.93 7.59,-4.92 13.25,-12.89 16.91,-24.3 3.65,-11.09 5.48,-27.02 5.48,-47.12 -0.15,-33.92 -5.77,-64.68 -17.19,-92.94 -11.25,-27.98 -27,-51.94 -47.56,-72.35 -20.44,-20.18 -44.63,-36.03 -72.53,-47.12 -27.72,-10.89 -58.55,-16.45 -91.85,-16.57 -44.91,0.13 -84.39,7.8 -118.39,22.78 -33.97,14.98 -62.13,35.83 -84.93,62.67 -22.75,26.71 -39.79,57.93 -51.24,93.63 -11.27,35.57 -17.09,74.3 -17.09,115.84 0,25.35 3.19,50.91 9.42,76.41 6.28,25.89 15.85,50.5 29.16,74.12 13.15,23.6 29.98,44.52 50.37,62.95 20.54,18.53 45.22,33.17 73.5,43.98 28.41,10.58 61.15,16.34 98.08,16.52 36.39,-0.18 68.25,-3.45 94.58,-9.65 26.33,-5.95 48.13,-14.28 65.32,-24.5 17.04,-10.37 29.49,-21.46 37.81,-33.69 8.31,-12.51 12.43,-24.78 12.43,-37.27 -0.23,-4.81 -1.8,-9.73 -5.12,-15.36 -3.17,-5.89 -7.52,-11.09 -12.77,-16.16 -5.07,-4.81 -10.6,-8.44 -16.81,-10.99 -5.89,9.68 -13.1,20.13 -21.98,31.53 -8.88,11.12 -20.05,21.67 -33.51,31.97 -13.46,9.99 -30.06,18.32 -49.67,24.78 -19.66,6.49 -43.16,9.93 -70.29,10.06 -28,-0.33 -53.4,-6.72 -75.85,-19.41 -22.62,-12.53 -41.82,-29.7 -57.8,-51.11 -16.09,-21.28 -28.39,-45.4 -36.96,-71.63 -8.26,-26.79 -12.77,-54.15 -12.77,-82.56 0,-24.78 2.34,-48.98 7.21,-72.96 5.12,-23.52 12.43,-45.79 22.44,-66.74 9.83,-20.85 22.42,-39.22 37.81,-55.08 15,-15.83 32.94,-28.41 53.66,-37.37 20.41,-9.01 44.01,-13.61 70.06,-13.69 27.28,0.08 50.83,5.2 70.91,15.06 20.1,9.96 36.62,23.32 49.59,40.3 12.89,16.86 22.55,36.16 28.8,57.7 6.1,21.64 9.47,44.37 9.47,68.02 0,11.63 -2.83,19.56 -8.75,23.91 -5.56,4.48 -14.26,6.33 -26.05,6.33l-136.35 0c-11.84,-0.33 -23.73,0 -35.18,0.49 -11.5,0.39 -21.98,1.62 -31.55,3.86 -9.65,1.93 -17.06,5.38 -22.88,10.09 -5.74,4.86 -8.54,11.63 -8.7,20.07 0,2.5 0.51,5.97 1.39,10.81 1.03,4.89 2.45,9.93 4.56,14.88 2.01,5.12 4.45,9.34 7.36,12.51 7,-4.63 14.18,-8.24 21.52,-11.17 7.26,-2.68 16.16,-4.99 26.38,-6.59 10.27,-1.54 23.45,-2.7 39.12,-3.24 16.11,-0.72 35.98,-1.16 59.84,-1.34 24.14,-0.15 53.33,-0.15 87.99,-0.15z"/>
    <path class="fil0" d="M2546.15 1144c-8.24,0.15 -15.52,1.49 -21.8,4.12 -6.02,2.26 -10.94,5.12 -14.28,7.41 -3.47,2.65 -5.22,3.96 -5.22,4.17 6.38,5.56 11.27,11.86 14.36,19.1 3.06,6.95 4.86,14.21 5.61,21.95 0.95,7.44 1.36,15.08 1.16,22.65 -0.21,15.24 -2.93,33.51 -8.47,54.92 -5.48,21.39 -12.66,44.37 -21.7,68.87 -8.93,24.66 -18.99,49.8 -29.88,74.89 -10.68,25.2 -21.52,49.31 -32.38,72.29 -10.81,22.88 -20.82,43.5 -29.75,61.72 -9.21,18.07 -16.42,32.4 -21.98,42.77 -3.6,-8.13 -8.42,-19.89 -14.41,-35.03 -5.87,-15.62 -12.64,-32.97 -19.89,-52.84 -7.46,-19.64 -15.03,-40.25 -22.85,-61.51 -7.85,-21.44 -15.57,-42.67 -22.83,-63.03 -7.44,-20.41 -14.18,-39.27 -20,-56 -6.18,-16.93 -11.04,-30.45 -14.64,-41.05 -3.65,-10.58 -5.77,-16.42 -6.13,-17.96 -2.26,-5.28 -4.3,-11.32 -6.2,-17.94 -1.65,-6.9 -2.5,-13.02 -2.78,-19.02 -0.15,-11.22 2.78,-20.44 8.88,-27.36 6.07,-6.77 16.52,-10.45 31.4,-10.68l20.2 0 0 -28.88 -222.52 0 0 28.88 14.54 0c16.78,0.23 30.76,5.15 42.29,14.77 11.58,9.5 20.92,22.52 28.1,38.97 14.59,32.94 28.9,66.22 42.72,100.48 13.92,33.92 26.84,66.71 39.07,98.34 12.1,31.55 23.09,60.56 32.63,86.53 9.45,25.97 17.35,47.12 23.27,64.11 6.05,16.86 9.5,27.38 11.02,31.73 0.54,2.81 1.11,5.58 1.42,8.21 0.59,2.75 0.85,5.28 0.85,7.46 -0.44,10.06 -2.26,18.63 -6.18,25.56 -3.65,7.1 -7.49,12.23 -11.2,16.09 -3.96,3.37 -5.77,5.35 -6.15,5.35 3.35,5.77 8.85,10.45 16.01,14.75 7.26,4.07 16.42,6.15 27.69,6.41 11.09,-0.33 20.92,-4.09 29.6,-11.22 8.49,-7.31 15.96,-15.93 22.29,-26.41 6.36,-10.45 11.68,-20.46 16.27,-30.52 10.99,-23.55 23.21,-48.82 36.73,-76.03 13.33,-27.2 26.92,-55.18 40.9,-83.85 13.9,-28.62 27.31,-56.93 40.3,-85.09 13,-28.21 24.63,-54.9 34.92,-79.96 10.29,-25.38 18.48,-48.31 24.42,-68.46 6.15,-20.44 9.14,-37.16 9.34,-50.39 0.15,-12.04 -1.31,-22.31 -4.32,-31.3 -2.99,-8.8 -8.44,-15.73 -16.37,-20.54 -8,-4.71 -19.48,-7.44 -34.05,-7.44z"/>
    <path class="fil0" d="M2019.65 1655.83c-16.81,-0.1 -30.34,-5.2 -41,-15.44 -10.47,-10.14 -18.22,-24.17 -23.19,-41.82 -4.97,-17.76 -7.46,-38.19 -7.46,-61.15l0 -552.16c0,-13.51 -2.52,-25.89 -7.72,-36.98 -5.43,-11.02 -13.43,-19.92 -24.22,-26.51 -10.66,-6.56 -24.24,-10.17 -40.69,-10.32l-88.23 0 0 26.87 29.03 0c9.88,-0.21 19.28,1.57 27.92,5.35 8.75,3.63 16.01,9.91 21.62,19.05 5.69,9.27 8.47,21.98 8.62,38.27l0 528.74c0.15,35.54 4.3,64.86 12.3,87.92 7.95,23.11 18.76,41.15 32.27,54.1 13.51,12.79 28.67,21.88 45.37,27.1 17.04,5.15 34.02,7.67 51.94,7.46 24.09,-0.21 44.81,-3.65 62.26,-10.22 17.55,-6.74 31.14,-15.96 40.61,-28.08 9.5,-12.17 14.28,-25.99 14.57,-42.23 -0.28,-8.03 -2.26,-14.54 -6.28,-19.43 -4.04,-5.17 -8.62,-9.01 -13.9,-11.63 -5.12,-2.75 -9.86,-4.4 -13.74,-5.58 -4.14,-1 -6.2,-1.34 -6.36,-1.34 -1.36,10.27 -4.94,20.74 -10.6,30.81 -5.71,10.32 -13.82,18.92 -24.27,25.81 -10.17,7 -23.29,11.12 -38.86,11.43z"/>
    <path class="fil0" d="M1811.72 1661.49c-6.54,0 -14.39,-2.19 -23.39,-6.59 -9.21,-4.27 -18.38,-11.45 -27.28,-20.9 -8.75,-9.65 -16.29,-22.06 -21.93,-37.32 0,-0.21 -2.32,-5.95 -6.41,-17.42 -4.04,-11.38 -9.88,-27.08 -17.06,-46.94 -7.34,-20.13 -15.47,-42.85 -25.07,-68.77 -9.32,-25.87 -19.41,-53.33 -29.78,-82.28 -10.63,-29.16 -21.21,-58.35 -32.09,-87.97 -10.55,-29.65 -20.98,-58.24 -30.81,-85.76 -10.06,-27.44 -19.07,-52.66 -27.38,-75.23 -8.26,-22.7 -15.21,-41.9 -20.56,-56.96 -5.58,-15.31 -9.06,-25.76 -11.02,-30.68 -5.56,-15.96 -11.71,-31.09 -18.63,-45.55 -6.87,-14.44 -14.82,-27.59 -24.24,-39.04 -9.39,-11.53 -20.41,-20.51 -33.28,-27.23 -12.87,-6.67 -28.21,-9.93 -45.66,-10.24 -13.82,0.31 -25.17,2.21 -34.31,6.31 -9.11,3.83 -15.93,8.34 -20.54,13.77 -4.32,5.04 -6.64,9.55 -6.64,13.64 2.39,0.23 5.77,0.82 10.24,2.06 4.45,1.39 8.9,3.99 13.72,7.7 4.89,3.65 8.8,9.42 12.15,16.78 3.29,7.26 5.04,16.91 5.2,29.26 -0.15,15.73 -5.56,38.55 -16.39,68.97 -10.58,30.34 -25.14,66.07 -43.5,107.43 -18.68,41.28 -39.69,86.27 -63.57,134.94 -23.83,48.64 -49.03,99.04 -75.36,151.46 -9.96,19.1 -19.79,38.43 -29.03,58.01 -9.21,19.59 -16.93,38.68 -23.09,57.21 -6.13,18.38 -9.21,35.41 -9.5,51.35 -0.15,5.22 0.44,11.84 1.67,19.87 1.39,7.8 3.78,15.73 7.7,23.88 3.94,8.18 9.65,14.9 17.48,20.31 7.85,5.56 18.25,8.36 31.35,8.62 15.31,-0.26 27.56,-2.32 37.14,-5.77 9.63,-3.58 16.5,-7.57 21.03,-11.74 4.38,-4.22 6.64,-7.34 6.64,-9.45 -8.54,-0.59 -15.26,-7 -20.31,-18.76 -5.1,-11.99 -7.44,-28.03 -7.67,-48.21 0.23,-10.27 2.06,-22.52 5.89,-36.96 3.65,-14.34 8.72,-29.7 14.62,-45.89 6.18,-16.24 12.61,-32.45 19.53,-48.33 7.08,-16.01 13.82,-30.78 20.25,-44.32l305.34 0c1.83,4.84 4.38,12.1 7.93,21.7 3.32,9.93 7.23,20.95 11.76,33.66 4.43,12.51 8.88,25.3 13.43,38.37 4.66,13.25 9.11,25.99 13.2,37.78 4.07,11.84 7.57,22.08 10.55,30.45 1.67,4.5 2.86,8.9 3.58,12.77 0.64,4.01 1,7.98 1,11.89 0,8.03 -2.99,14.93 -8.8,20.49 -5.79,5.89 -14.18,8.98 -24.78,9.63l-26.82 0 0 33.56 241.41 0 0 -33.56 -27.92 0zm-490.65 -280.56c28.77,-57.47 52.48,-107.53 70.88,-149.33 18.71,-41.93 33.35,-76.77 44.37,-104.34 10.81,-27.85 19.38,-49.08 25.51,-63.78 18.94,52.27 37.86,105.16 56.72,158.72 18.76,53.74 37.7,106.6 57.24,158.72l-254.72 0z"/>
    <path class="fil0" d="M2322.91 3383.99c-20.92,-0.15 -35.83,-7.62 -44.45,-22.19 -8.65,-14.75 -12.82,-35.26 -12.66,-61.54l0 -251.58c-0.15,-47.74 -8.54,-85.83 -24.78,-113.71 -16.34,-27.9 -39.66,-48.05 -69.62,-59.89 -29.98,-11.99 -65.6,-17.99 -106.73,-17.63 -28.13,0 -54,3.09 -77.75,8.65 -23.76,5.84 -44.32,13.92 -61.97,24.6 -17.5,10.5 -31.3,22.78 -40.95,37.11 -9.93,14.41 -14.85,30.01 -15,47.12 0.46,14.28 3.29,25.61 8.65,33.64 5.4,8.29 11.63,14.05 18.79,17.86 7.08,3.27 13.43,5.56 18.79,6.41 5.46,1.08 8.18,1.49 8.67,1.18 -0.26,-13.51 1.9,-27.85 6.51,-42.47 4.56,-15.03 12.04,-28.9 22.6,-41.9 10.89,-13.05 25.22,-23.45 43.47,-31.66 18.27,-7.93 40.95,-12.35 68.2,-12.46 24.55,0.1 44.86,3.35 60.74,10.06 15.78,6.46 28.26,15.08 37.22,25.87 9.27,10.6 15.65,22.26 19.59,35.05 4.14,12.69 6.54,25.35 7.39,37.81 1.13,12.79 1.57,23.99 1.36,34.33l0 52.45 -71.6 0c-41,-0.1 -79.37,1.98 -114.84,7.15 -35.75,4.89 -66.97,13.38 -93.76,25.74 -27,12.35 -48.02,29.57 -63.34,51.5 -15.08,22.16 -22.91,50.37 -23.09,84.47 0.18,22.49 4.25,42.21 12.07,58.96 7.75,16.78 18.27,31.3 31.27,42.93 13.05,11.66 27.51,21.1 43.26,28.26 15.88,7.26 31.94,12.43 48.05,15.98 16.01,3.24 31.27,4.71 45.3,4.71 30.22,-0.05 54.23,-2.39 72.22,-6.95 17.91,-4.17 31.09,-9.93 39.97,-16.68 8.7,-6.72 14.54,-13.85 17.35,-21.1 2.6,-7.49 3.71,-14.21 3.47,-20.02 -0.21,-5.66 -1.96,-10.78 -5.04,-15.73 -3.19,-4.61 -6.72,-8.36 -10.45,-11.12 -3.55,-3.01 -6.41,-4.5 -7.93,-4.5 0,0 -2.14,2.83 -6.02,7.77 -4.09,4.99 -10.45,10.86 -18.87,17.37 -8.67,6.49 -19.59,12.33 -33.02,17.24 -13.51,5.2 -29.6,7.67 -48.44,7.95 -12.02,0 -24.3,-2.06 -36.57,-5.92 -12.33,-4.2 -23.52,-10.24 -33.97,-18.84 -10.17,-8.36 -18.71,-19.3 -24.78,-32.22 -6.28,-13.46 -9.5,-28.95 -9.65,-47.02 0.15,-29.98 8.57,-54.07 25.38,-71.93 16.73,-17.89 41.23,-30.68 73.32,-38.5 32.15,-7.72 71.09,-11.56 117,-11.27l72.71 0 0 170.87c-0.23,8.11 0.39,17.27 1.67,27.74 1.49,10.47 5.04,20.64 10.55,30.47 5.56,9.93 14.77,18.09 27.41,24.6 12.56,6.36 29.88,9.81 52.09,9.93l56.93 0 0 -29.01 -16.7 0z"/>
    <path class="fil0" d="M1755.05 3379.38l-25.79 0c-13.15,0 -25.27,-3.27 -36.68,-9.57 -11.35,-6.28 -20.62,-15.65 -28.31,-27.56 -7.46,-11.84 -12.2,-26.41 -14.34,-43.11 -8.03,-77.83 -14.98,-145.18 -20.72,-202.73 -5.74,-57.37 -10.6,-106.22 -14.62,-146.73 -3.91,-40.23 -7.15,-73.5 -9.73,-99.76 -2.45,-26.41 -4.25,-47.23 -5.56,-62.72 -1.6,-15.62 -2.55,-26.9 -3.06,-34.67 -0.59,-7.77 -0.95,-12.97 -1.24,-15.67 0.28,-16.24 6.05,-28.36 17.17,-36.11 10.96,-8.31 25.79,-11.97 44.55,-11.97l37.91 0 0 -32.4 -125.24 0c-16.75,0.15 -31.63,3.32 -44.89,9.37 -13.23,6.07 -24.99,14.26 -34.85,23.86 -10.09,9.55 -18.63,19.82 -25.71,30.55 -7.1,10.86 -12.95,21.1 -17.5,30.5 -4.45,9.65 -7.88,17.27 -10.09,23.01 -21.77,52.79 -43.01,105.78 -63.78,159.62 -20.92,53.84 -42.77,109.3 -65.71,166.9 -22.65,57.68 -47.61,118.34 -75.05,182.06 -19.1,-48.54 -37.81,-95.17 -56.29,-139.78 -18.66,-44.29 -37.01,-87.81 -55.28,-130.43 -18.48,-42.39 -36.8,-85.11 -55.1,-127.91 -18.48,-42.85 -37.11,-87.22 -55.82,-132.91 -9.78,-24.78 -19.87,-44.09 -30.47,-57.91 -10.71,-13.74 -23.32,-23.34 -38.01,-29.03 -14.57,-5.69 -32.53,-8.16 -54.46,-7.9l-125.18 0 0 32.4 40.2 0c14.39,0.08 25.79,2.52 33.95,7.31 8.21,4.89 13.98,11.25 17.55,19.07 3.5,7.95 5.4,16.6 5.56,26.1l-45.84 562.2c-0.49,7.23 -2.39,15 -5.89,23.57 -3.42,8.72 -8.54,17.06 -15.16,24.84 -6.64,8.08 -15.34,14.7 -25.84,19.56 -10.63,5.38 -23.27,7.9 -38.09,7.95l-20.18 0 0 33.61 230.37 0 0 -33.61 -12.28 0c-14.93,-0.05 -25.43,-5.71 -31.5,-17.01 -5.97,-11.43 -8.9,-26.74 -8.75,-46.53 0,-2.93 0.36,-10.86 1.29,-24.37 0.95,-13.51 2.06,-30.86 3.6,-52.68 1.39,-21.36 3.27,-45.63 5.2,-72.29 1.96,-26.74 4.01,-54.9 6.28,-84.16 2.24,-29.26 4.61,-58.14 6.92,-87.45 2.42,-28.85 4.63,-56.29 6.9,-82.31 2.24,-26.1 4.38,-49.13 6.18,-69.23 2.01,-20.15 3.73,-36.06 5.04,-47.51 1.42,-11.53 2.57,-17.48 3.29,-17.71 0.88,-0.26 3.94,4.99 8.98,15.7 5.07,10.76 12.82,28.72 23.42,53.71 10.63,24.78 24.89,58.14 42.54,100.58 7.46,17.24 16.5,38.17 27.38,62.36 10.84,24.19 22.31,50.26 34.69,78.11 12.17,27.49 24.35,55.39 36.44,83.41 11.94,27.87 22.88,54.48 32.79,79.27 10.09,25.02 17.84,46.92 23.83,65.53 6.02,18.45 8.98,32.58 9.14,41.59 0,10.24 -0.67,18.74 -2.08,24.91 -1.21,6.18 -2.93,10.96 -4.5,14.13 0.03,3.09 3.09,6.28 8.8,9.73 5.74,3.76 13.23,5.43 22.44,5.84 10.06,0.33 19.71,-1.26 28.85,-4.04 9.09,-2.96 17.63,-8.21 25.74,-15.67 7.95,-7.41 14.98,-17.96 21.41,-31.58 21.57,-47.15 41.82,-93.3 61.02,-138.41 18.99,-44.89 36.75,-87.51 53.07,-127.78 16.24,-40.41 31.19,-77.29 44.58,-110.64 16.65,-41.18 30.96,-76.93 43.42,-107.73 12.66,-30.47 22.57,-54.05 30.19,-70.98 7.44,-16.96 12.12,-25.43 13.54,-25.76 0.41,0.33 0.57,2.08 0.69,5.43 0.28,3.91 0.44,8.11 0.44,13.1 0,4.94 0,9.6 0,13.82 1.03,11.2 2.26,25.87 4.01,44.37 1.57,18.68 3.47,39.51 5.66,62.9 2.26,23.45 4.74,48.41 7.13,74.48 2.42,26.05 4.99,52.3 7.41,78.75 2.47,26.3 4.94,51.53 7.15,76.13 2.24,22.96 4.43,44.96 6.28,65.53 2.11,21 3.96,39.63 5.4,56.18 1.6,16.6 2.78,29.85 3.73,40.07 0.98,10.24 1.36,16.21 1.36,18.09 0.15,7.23 -1,14.64 -3.06,22.57 -2.03,7.59 -5.92,14.08 -11.48,19.3 -5.77,5.35 -14.08,8.21 -24.68,8.26l-12.15 0 0 33.61 241.41 0 0 -33.61z"/>
    <path class="fil0" d="M2993.48 3383.99c-13.1,-0.15 -23.91,-2.47 -32.4,-7.52 -8.65,-4.58 -15.21,-10.66 -20.31,-18.09 -4.76,-7.57 -8.49,-15.29 -10.27,-23.47 -2.03,-8.29 -3.01,-15.73 -3.01,-22.44l0 -260.43c0,-26.66 -3.68,-51.47 -11.56,-73.89 -7.57,-22.85 -19.43,-42.54 -35.41,-59.35 -15.8,-16.75 -36.01,-29.85 -60.56,-39.35 -24.3,-9.21 -53.46,-14 -86.84,-14.21 -23.06,0.21 -44.45,3.24 -64.03,9.24 -19.38,6 -37.37,13.79 -53.28,23.7 -15.96,9.83 -29.7,20.8 -41.36,32.66 -11.74,11.92 -21.05,24.17 -28.08,36.29 0.21,-14.77 -1.75,-28.46 -5.51,-40.82 -3.99,-12.17 -11.68,-22.19 -22.88,-29.52 -11.09,-7.21 -27.33,-11.25 -48.77,-11.45l-73.74 0 0 26.95 25.71 0c15.47,0.08 27.18,3.47 35.05,9.81 7.93,6.43 13.15,14.16 15.93,23.63 2.68,8.98 4.04,17.94 3.83,26.97l0 362.17c-0.21,10.45 -3.22,19.3 -8.65,26.53 -5.61,7.23 -12.2,12.79 -20.15,16.88 -7.7,3.65 -15.44,5.71 -22.67,5.71l-29.06 0 0 29.01 220.18 0 0 -29.01 -22.37 0c-10.45,-0.15 -18.84,-3.01 -25.14,-8.57 -6.51,-5.35 -11.27,-12.51 -14.05,-20.95 -2.83,-8.54 -4.45,-17.27 -4.45,-26.35l0 -183.32c0.15,-35.18 4.81,-66.84 13.38,-94.76 8.85,-27.82 21,-51.47 36.83,-71.09 15.52,-19.33 33.72,-34.2 54.59,-44.58 20.87,-10.24 43.13,-15.39 67.4,-15.39 27.31,-0.18 50.78,4.94 70.18,15.83 19.38,10.68 34.49,27.8 44.78,51.01 10.35,23.47 15.93,54.07 15.93,91.88l0 235.85c0,17.68 2.7,34.08 8.52,49.16 5.84,15 15.11,27.1 27.49,36.19 12.53,9.21 28.7,13.98 48.9,14.1l71.57 0 0 -29.01 -15.75 0zm589.01 -498.65c-15.42,-0.18 -28.88,1.96 -40.51,5.79 -11.81,4.2 -20.9,10.81 -27.51,20.13 -6.54,9.6 -9.86,21.85 -10.11,37.88l0 13.46c-8.72,-15.39 -21.34,-29.31 -37.65,-41.49 -16.37,-12.28 -36.11,-22.13 -58.89,-29.13 -22.75,-7.34 -47.97,-10.78 -75.59,-10.99 -43.75,0.21 -82.31,7.8 -115.33,22.01 -32.94,14.34 -60.51,34.15 -82.46,58.96 -21.82,25.09 -38.5,53.64 -49.54,85.94 -10.96,32.33 -16.52,66.35 -16.52,102.46 0.23,37.78 6.87,72.47 19.69,103.98 13.13,31.48 30.96,58.58 53.87,81.74 23.01,23.03 49.52,40.77 79.73,53.4 30.29,12.51 62.41,18.92 97.03,19.15 28.83,-0.23 52.48,-2.63 70.49,-7.31 17.99,-4.61 30.88,-10.89 39.27,-18.94 8.21,-8.18 12.28,-17.19 12.12,-27.46 -0.26,-8.7 -2.14,-15.08 -5.66,-19.66 -3.71,-4.84 -7.46,-8.21 -10.89,-10.06 -3.63,-1.96 -5.35,-2.63 -5.74,-2.63 -11.48,10.55 -23.39,18.53 -35.23,23.37 -11.89,4.89 -23.57,8.13 -34.85,9.42 -11.4,1.44 -21.93,1.93 -31.63,1.88 -19.87,0 -39.74,-4.68 -59.53,-13.85 -19.69,-9.19 -37.76,-22.31 -54.1,-39.92 -16.6,-17.42 -29.85,-38.86 -39.94,-64.29 -9.86,-25.27 -14.98,-54.05 -15.34,-86.53 0,-28.65 3.58,-56.24 10.89,-82.67 7.1,-26.41 18.12,-50.03 32.89,-70.88 15.21,-20.62 34.26,-37.14 57.32,-49.41 23.14,-12.04 50.52,-18.22 82.36,-18.32 28.57,0.1 53.53,5.02 75.28,14.75 21.49,10.04 39.69,23.65 54.2,41.33 14.41,17.84 25.3,38.45 32.69,62.05 7.21,23.76 11.07,49.67 11.07,77.31l0 269.44c0,28.62 -3.47,55.15 -10.81,79.5 -7.08,24.17 -17.99,45.43 -31.79,63.42 -14.23,18.02 -31.86,32.15 -52.61,41.85 -20.9,10.14 -45.01,15.11 -72.47,15.44 -24.24,-0.33 -45.53,-3.89 -63.47,-10.91 -18.2,-6.9 -33.23,-16.03 -45.04,-27.31 -12.15,-11.5 -20.92,-23.88 -26.84,-37.27 -5.79,-13.43 -8.9,-26.61 -8.9,-39.74 -0.28,-0.18 -3.32,0.44 -9.32,1.52 -5.71,0.95 -12.56,3.58 -20.36,7.23 -7.49,3.96 -14.36,9.93 -20.15,18.09 -6.15,8.29 -8.88,19.33 -9.32,33.59 -0.31,9.96 3.17,20.92 10.47,32.87 7.13,11.94 18.76,23.39 34.54,34.23 15.85,10.94 37.01,20.02 62.95,27 25.89,6.92 57.93,10.68 95.43,10.91 40.82,-0.23 76.16,-7.26 106.42,-20.95 30.11,-13.61 55.03,-32.15 75.1,-56 19.51,-23.76 34.31,-51.16 44.29,-81.95 9.52,-30.81 14.52,-63.49 14.52,-98.21l0 -392.36c0,-20.92 2.06,-37.58 6.33,-49.7 4.32,-12.17 11.2,-20.8 20.46,-25.79 9.37,-5.02 21.59,-7.31 36.88,-7.13l25.76 0 0 -29.24 -83.95 0zm214.7 264.03c0,-22.16 1.85,-44.22 5.87,-66.61 4.3,-22.57 10.94,-44.04 20.05,-64.55 9.24,-20.64 21.64,-39.02 36.93,-55.36 15.16,-16.16 34.36,-28.98 56.54,-38.32 22.6,-9.55 49.05,-14.31 79.55,-14.44 30.42,0.13 56.52,4.81 78.52,13.72 21.85,9.19 40.12,21.46 54.95,37.29 14.7,15.98 26.3,33.77 34.87,54.2 8.65,20.31 14.82,41.9 18.68,64.91 3.65,22.83 5.51,45.76 5.38,69.15 0.13,28.9 -3.5,57.16 -10.5,84.6 -6.9,27.36 -18.17,52.07 -33.46,74.25 -14.98,21.98 -35.03,39.4 -59.37,52.53 -24.71,13 -54.2,19.48 -89.08,19.92 -36.44,-0.44 -67.43,-6.92 -92.88,-19.92 -25.25,-13.13 -45.99,-30.55 -61.46,-52.53 -15.73,-22.19 -27.13,-46.89 -34.13,-74.25 -7.1,-27.44 -10.68,-55.69 -10.47,-84.6zm-76.05 0c0,26.71 3.24,53.51 9.83,80.32 6.13,26.79 16.24,52.43 30.14,76.52 13.51,24.42 31.32,45.66 52.89,64.52 21.46,18.81 47.59,33.59 77.7,44.91 30.22,10.66 64.91,16.21 104.44,16.32 39.74,-0.1 74.53,-5.66 104.21,-16.32 29.75,-11.32 55.18,-26.1 75.82,-44.91 20.69,-18.87 37.58,-40.1 50.44,-64.52 12.82,-24.09 22.21,-49.72 27.98,-76.52 5.97,-26.82 8.67,-53.61 8.67,-80.32 0.28,-27.36 -2.6,-54.77 -7.93,-82.28 -5.4,-27.54 -14.13,-53.53 -26.48,-78.7 -12.38,-24.73 -28.77,-46.89 -49.39,-66.35 -20.64,-19.74 -45.84,-34.9 -76.1,-46.07 -30.24,-11.27 -66.07,-17.19 -107.22,-17.37 -42.8,0.18 -79.63,6.1 -110.98,17.37 -31.12,11.17 -57.39,26.33 -78.45,46.07 -21.23,19.46 -37.96,41.62 -50.47,66.35 -12.56,25.17 -21.7,51.16 -27,78.7 -5.48,27.51 -8.13,54.92 -8.11,82.28z"/>
    <path class="fil0" d="M1180.34 2342.18c-208.78,-1.54 -179.33,47.9 -179.33,47.9 14.85,3.27 20.69,18.81 20.69,24.22 0,5.15 5.28,36.26 -34.67,36.26 -39.33,0 -38.81,-42.29 -38.81,-42.29 0,-79.32 106.45,-94.25 165.64,-94.25 28.72,0 280.71,-3.73 346.24,-3.73 65.6,0 71.91,26.1 71.91,41.1 0,14.34 -5.28,35.03 -31.37,35.03 -20.9,0 -28.31,-18.17 -28.31,-26.07 0,-7.28 0.59,-16.96 6.97,-21.34 0,0 -272.76,3.65 -298.96,3.17z"/>
    <path class="fil0" d="M1180.34 2216.02c-208.78,1.67 -179.33,-47.38 -179.33,-47.38 14.85,-3.83 20.69,-19.2 20.69,-24.53 0,-4.94 5.28,-36.24 -34.67,-36.24 -39.33,0 -38.81,42.59 -38.81,42.59 0,79.45 106.45,93.79 165.64,93.79 28.72,0 280.71,3.71 346.24,3.71 65.6,0 71.91,-26.1 71.91,-40.48 0,-15.06 -5.28,-35.59 -31.37,-35.59 -20.9,0 -28.31,18.07 -28.31,26.02 0,7.44 0.59,16.96 6.97,21.28 0,0 -272.76,-3.68 -298.96,-3.17z"/>
    <path class="fil0" d="M1582.12 2279.39c0,-17.48 -8.98,-30.91 -29.91,-30.91 -20.2,0 -25.48,17.09 -25.48,17.09l-624.84 0 0 -29.37c0,-27.62 16.96,-31.4 16.96,-31.4 -11.17,-18.66 -21.26,-55.87 -21.26,-62.88 0,-6.9 -6.43,-16.96 -14.98,-16.96 -11.12,0 -13.82,15.34 -13.82,15.34 -2.65,24.5 -19.66,64.5 -19.66,64.5 18.12,7.95 12.79,33.02 12.79,33.02l0 27.74c0,0 -21.28,-0.44 -28.31,-2.63 -28.77,-6.92 -38.35,-25.69 -38.35,-25.69 -18.12,22.42 -72.94,32.07 -94.71,32.07 -17.14,0 -17.14,10.06 -17.14,10.06 0,0 0,10.11 17.14,10.11 21.77,0 76.59,9.65 94.71,31.97 0,0 9.57,-19.1 38.35,-26.1 7.03,-1.57 28.31,-2.08 28.31,-2.08l0 27.13c0,0 5.33,25.22 -12.79,33.07 0,0 17.01,40.38 19.66,64.47 0,0 2.7,15.52 13.82,15.52 8.54,0 14.98,-10.17 14.98,-17.17 0,-7.03 10.09,-44.29 21.26,-62.82 0,0 -16.96,-3.78 -16.96,-31.42l0 -28.77 624.84 0c0,0 5.28,17.01 25.48,17.01 20.92,0 29.91,-10.71 29.91,-30.91z"/>
    <path class="fil0" d="M3790.45 2215.97c208.88,1.44 179.46,-48.1 179.46,-48.1 -15,-3.06 -20.85,-18.5 -20.85,-23.91 0,-5.28 -5.3,-36.16 34.67,-36.16 39.45,0 38.84,42.08 38.84,42.08 0,79.32 -106.32,94.2 -165.59,94.2 -28.77,0 -280.71,3.81 -346.34,3.81 -65.45,0 -71.7,-26.12 -71.7,-41.18 0,-14.36 5.17,-34.98 31.22,-34.98 20.82,0 28.31,18.02 28.31,26.1 0,7.31 -0.57,17.04 -6.85,21.21 0,0 272.58,-3.53 298.83,-3.06z"/>
    <path class="fil0" d="M3790.45 2342.08c208.88,-1.49 179.46,47.61 179.46,47.61 -15,3.58 -20.85,19.07 -20.85,24.32 0,4.86 -5.3,36.34 34.67,36.34 39.45,0 38.84,-42.67 38.84,-42.67 0,-79.45 -106.32,-93.79 -165.59,-93.79 -28.77,0 -280.71,-3.83 -346.34,-3.83 -65.45,0 -71.7,26.23 -71.7,40.69 0,14.88 5.17,35.49 31.22,35.49 20.82,0 28.31,-18.09 28.31,-25.99 0,-7.41 -0.57,-17.09 -6.85,-21.34 0,0 272.58,3.76 298.83,3.17z"/>
    <path class="fil0" d="M3388.8 2278.82c0,17.53 8.98,30.76 29.88,30.76 20.25,0 25.43,-16.88 25.43,-16.88l624.84 0 0 29.16c0,27.64 -16.99,31.5 -16.99,31.5 11.12,18.66 21.21,55.93 21.21,62.85 0,6.82 6.46,17.06 15.03,17.06 11.09,0 13.85,-15.42 13.85,-15.42 2.65,-24.5 19.69,-64.5 19.69,-64.5 -18.2,-8.03 -12.82,-32.94 -12.82,-32.94l0 -27.72c0,0 21.28,0.39 28.34,2.63 28.7,6.87 38.32,25.61 38.32,25.61 18.12,-22.44 72.94,-31.97 94.84,-31.97 16.88,0 16.88,-10.14 16.88,-10.14 0,0 0,-10.14 -16.88,-10.14 -21.9,0 -76.72,-9.73 -94.84,-32.04 0,0 -9.63,19.17 -38.32,26.17 -7.05,1.44 -28.34,2.03 -28.34,2.03l0 -27.02c0,0 -5.38,-25.27 12.82,-33.12 0,0 -17.04,-40.54 -19.69,-64.47 0,0 -2.75,-15.44 -13.85,-15.44 -8.57,0 -15.03,10.24 -15.03,17.01 0,7.05 -10.09,44.29 -21.21,62.9 0,0 16.99,3.89 16.99,31.42l0 28.72 -624.84 0c0,0 -5.17,-16.96 -25.43,-16.96 -20.9,0 -29.88,10.63 -29.88,30.94z"/>
    <polygon class="fil0" points="1654.83,3853.07 1692.28,3928.76 1775.87,3940.83 1715.36,3999.82 1729.59,4083.08 1654.83,4043.78 1580.19,4083.08 1594.37,3999.82 1534.02,3940.83 1617.48,3928.76 "/>
    <polygon class="fil0" points="3315.65,3853.07 3353.1,3928.76 3436.69,3940.83 3376.21,3999.82 3390.45,4083.08 3315.65,4043.78 3241.02,4083.08 3255.17,3999.82 3194.85,3940.83 3278.31,3928.76 "/>
    <polygon class="fil0" points="2042.25,3825.32 2088.75,3919.29 2192.42,3934.27 2117.42,4007.44 2135.03,4110.77 2042.25,4062.05 1949.64,4110.77 1967.25,4007.44 1892.38,3934.27 1995.92,3919.29 "/>
    <polygon class="fil0" points="2928.16,3825.32 2974.64,3919.29 3078.31,3934.27 3003.34,4007.44 3020.97,4110.77 2928.16,4062.05 2835.53,4110.77 2853.19,4007.44 2778.29,3934.27 2881.83,3919.29 "/>
    <polygon class="fil0" points="2485.18,3791.53 2542.7,3907.73 2670.95,3926.26 2578.14,4016.83 2599.94,4144.61 2485.18,4084.34 2370.6,4144.61 2392.42,4016.83 2299.74,3926.26 2427.86,3907.73 "/>
    <path class="fil0" d="M319.29 3099.44c2.83,0.21 5.04,1.08 6.79,2.73 1.21,1.13 2.91,2.88 5.12,5.33 5.79,6.36 10.89,8.96 15.49,7.75 4.99,-1.26 6.9,-4.53 7.62,-7.03 0.85,-3.24 0.46,-8.06 -1.24,-14.82l-11.89 -47.59c-1.75,-6.97 -3.63,-11.3 -5.89,-13.61 -2.6,-2.73 -6.02,-3.68 -9.99,-2.65 -4.61,1.13 -7.8,5.51 -9.55,13.05 -1.85,8.03 -3.09,10.55 -3.55,11.25 -1.39,1.6 -3.14,2.93 -5.35,4.04 -2.42,1.16 -6.38,2.42 -11.81,3.81l-70.6 17.66 -39.63 -158.67 70.57 -17.68c5.82,-1.42 10.37,-2.19 13.54,-2.19l0.77 0.05c2.81,0.13 4.99,1 6.77,2.65 1.34,1.21 3.06,3.14 5.17,5.71 5.97,6.43 11.2,9.09 15.52,7.9 3.96,-0.95 6.59,-3.37 7.62,-7.03 0.88,-3.14 0.49,-7.98 -1.21,-14.77l-11.92 -47.59c-1.67,-6.79 -3.6,-11.3 -5.89,-13.67 -2.6,-2.7 -6.13,-3.65 -9.96,-2.57 -4.56,1.06 -7.77,5.38 -9.57,12.79 -1.93,7.9 -3.22,10.35 -3.83,11.12 -1.29,1.62 -3.01,2.93 -5.17,3.96 -2.37,1.18 -6.33,2.47 -11.79,3.81l-195.39 48.85c-6.43,1.6 -11.3,2.37 -14.46,2.08 -2.91,-0.15 -5.12,-0.98 -6.82,-2.55 -1.34,-1.24 -3.04,-2.99 -5.07,-5.28 -6.02,-6.46 -11.14,-9.16 -15.57,-7.9 -5.2,1.26 -7.05,4.56 -7.67,7.03 -0.85,3.17 -0.44,7.85 1.31,14.75l11.89 47.64c1.67,6.72 3.55,11.14 5.77,13.61 2.52,2.73 5.95,3.71 10.14,2.63 4.58,-1.16 7.77,-5.56 9.5,-13.13 1.9,-8.42 3.14,-10.6 3.6,-11.14 1.31,-1.6 3.11,-2.93 5.43,-4.07 2.47,-1.24 6.49,-2.52 11.92,-3.86l97.16 -24.3 39.63 158.69 -97.13 24.27c-5.66,1.44 -10.14,2.14 -13.33,2.14 -0.41,0 -0.77,-0.03 -1.13,-0.03 -2.88,-0.18 -5.12,-1.03 -6.82,-2.55 -1.34,-1.26 -3.17,-3.14 -5.38,-5.61 -5.84,-6.54 -10.84,-9.16 -15.39,-8 -5.2,1.29 -7.05,4.58 -7.64,7.08 -0.82,3.17 -0.39,7.98 1.31,14.75l11.89 47.56c1.67,6.82 3.58,11.25 5.77,13.64 1.83,2.03 4.22,3.04 6.97,3.04 0.98,0 2.03,-0.1 3.11,-0.39 4.61,-1.16 7.82,-5.48 9.57,-12.89 1.93,-8.24 3.22,-10.45 3.65,-10.99 1.34,-1.62 3.14,-2.93 5.43,-4.09 2.42,-1.16 6.41,-2.47 11.89,-3.83l195.42 -48.82c6.31,-1.6 11.3,-2.34 14.31,-2.06z"/>
    <path class="fil0" d="M425.51 3405.99c-14.23,18.02 -28.39,35.03 -42.16,50.6 -14.18,16.03 -28.7,31.32 -43.21,45.53l-43.34 -91.13c21.7,-2.29 43.65,-3.86 65.32,-4.76 21.05,-0.8 42.31,-0.93 63.39,-0.23zm52.07 -21c-1.88,-3.94 -8.98,-8.18 -47.33,-9.55 -27.98,-0.95 -65.65,0 -112.01,2.91 -29.47,1.93 -60.87,4.74 -93.32,8.26 -29.55,3.24 -47.38,4.89 -52.94,4.89 -0.44,0 -0.8,0 -0.95,-0.08 -0.46,-0.03 -2.11,-0.49 -6.61,-3.19 -4.35,-2.63 -8.29,-3.09 -11.35,-1.67 -3.73,1.75 -5.79,4.84 -5.89,8.98 -0.03,3.6 1.47,8.49 4.61,15.11l15.18 31.91c2.93,6.18 5.71,10.27 8.54,12.53 3.27,2.65 6.9,3.14 10.4,1.54 4.74,-2.26 7.21,-6.79 7.36,-13.41 0.05,-2.81 0.21,-4.99 0.49,-6.61 0.31,-2.55 0.98,-4.68 2.01,-6.36 1,-1.6 2.39,-2.75 4.27,-3.65 4.58,-2.24 12.84,-4.45 24.55,-6.64 11.43,-2.14 25.56,-4.04 42,-5.64l52.32 109.97c-13.33,13.72 -23.88,24.19 -32.22,31.97 -8.44,7.88 -14.44,12.69 -17.76,14.28 -1.93,0.9 -3.58,1.42 -4.97,1.57 -1,0.21 -1.9,0.05 -2.32,-0.23 -1.26,-0.88 -2.88,-2.03 -4.89,-3.5 -7.7,-5.77 -14.05,-7.44 -19.17,-4.97 -5.02,2.45 -6.15,6.25 -6.23,9.01 -0.1,3.55 1.44,8.52 4.63,15.26l15.88 33.38c3.94,8.29 7.13,13.59 9.7,16.14 1.98,1.9 4.17,2.88 6.49,2.88 1.26,0 2.55,-0.28 3.83,-0.88 4.17,-2.01 7.08,-6.49 8.54,-13.36 1.6,-7.36 2.81,-9.93 3.42,-10.78 1.42,-2.11 7.93,-9.11 30.86,-30.22 18.58,-17.17 35.47,-33.51 50.19,-48.62 35.95,-37.32 64.7,-70.34 85.5,-98.06 28.44,-37.96 29.47,-48.33 27.18,-53.2z"/>
    <path class="fil0" d="M740.94 3880.89c2.65,-1.06 4.99,-1.42 7.62,-0.93 1.08,0.15 3.89,1 10.5,4.63 6.25,3.5 11.71,3.6 15.83,0.49 3.22,-2.34 4.38,-5.79 3.32,-9.6 -0.82,-3.32 -3.91,-8.47 -9.7,-16.27l-23.7 -31.91c-3.86,-5.15 -7,-8.24 -9.7,-9.5 -3.11,-1.47 -6.46,-0.95 -9.63,1.42 -4.04,2.99 -4.99,7.9 -2.81,14.59 0.51,1.57 0.93,2.88 1.24,3.96 0.03,0.08 0.26,0.64 0.26,0.69l0.46 1.34c1.67,5.15 1.52,7.88 1.08,9.39 -0.15,0.51 -0.77,2.11 -3.81,5.12 -2.42,2.45 -8.26,7.13 -17.4,13.92l-123.82 92.04c9.96,-27.8 19.38,-55.9 27.98,-83.64 9.63,-31.09 18.45,-62.15 26.23,-92.32 7.57,-28.95 12.35,-48.8 14.26,-59.01 1.98,-10.84 2.5,-17.76 1.57,-21.95 -0.51,-1.67 -1.44,-3.63 -2.96,-6.05 -1.29,-2.11 -3.11,-4.68 -5.69,-8.21l-19.92 -26.77c-6.61,-8.93 -9.86,-10.94 -11.74,-11.66 -3.22,-1.16 -6.69,-0.54 -10.19,2.01 -4.35,3.27 -5.22,9.19 -2.5,17.71 0.67,2.01 1.18,3.6 1.47,4.92l0.67 2.24c1.93,6.61 1.72,9.91 1.21,11.61 -0.46,1.6 -1.7,3.45 -3.65,5.4 -2.06,2.08 -5.82,5.12 -11.71,9.55l-138.18 102.74c-10.42,7.72 -18.63,13.2 -24.42,16.29 -5.17,2.81 -9.37,4.17 -12.84,4.17l-0.03 0c-2.93,-0.1 -6.56,-1.44 -10.73,-4.09 -4.97,-3.04 -7.85,-4.76 -9.57,-5.51 -1.6,-0.67 -3.42,-0.77 -5.35,-0.33 -1.78,0.36 -3.5,1.26 -5.28,2.57 -2.96,2.16 -4.07,5.46 -3.17,9.16 0.72,3.14 2.91,7.1 6.64,12.15l33.07 44.5c4.61,6.18 8.31,10.04 11.3,11.61 3.53,1.96 7.18,1.6 10.47,-0.88 4.43,-3.29 5.1,-9.14 2.06,-17.37 -1.21,-3.35 -2.11,-6.07 -2.7,-8.13 -1.29,-4.92 -1.44,-7.23 -1.34,-8.39 0.1,-1.52 0.62,-2.99 1.42,-4.2 2.06,-2.96 4.68,-6 8.11,-9.34 3.35,-3.29 7.18,-6.56 11.4,-9.7l150.41 -111.83c-8.21,39.89 -18.32,80.4 -30.14,120.53 -12.38,42.18 -26.87,84.83 -43.01,126.78l-7.49 18.87c-10.78,26.87 -9.45,33.95 -7.05,37.19 2.11,2.86 4.66,4.27 7.57,4.27 0.46,0 0.98,-0.03 1.52,-0.1 1.88,-0.41 5.69,-1.85 17.17,-10.37l181.91 -135.22c6.07,-4.5 10.6,-7.41 13.51,-8.57z"/>
    <path class="fil0" d="M896.57 4348.78l0 0 0 0 0 0zm-104.83 -72.11c-11.14,-9.93 -16.86,-18.22 -16.93,-24.53 -0.1,-4.45 4.17,-14.54 24.84,-37.7l97.8 -109.43 9.83 -10.96c5.71,-6.38 10.32,-10.89 13.64,-13.25 3.06,-2.26 6.13,-3.47 9.14,-3.73 0.62,-0.05 1.21,-0.1 1.8,-0.1 3.06,0 6.07,0.8 9.21,2.39 3.89,1.98 10.22,6.85 18.84,14.52 29.47,26.35 45.17,54.61 46.66,84.06 1.52,29.37 -11.2,59.37 -37.78,89.18 -26.92,30.11 -55.87,46.22 -86.04,47.87 -30.14,1.7 -60.74,-11.22 -91.01,-38.3zm190.61 -198.02c-5.2,-4.63 -13.46,-11.79 -24.58,-21.18 -11.99,-10.14 -20.25,-17.3 -25.99,-22.42 -5.51,-4.94 -11.2,-10.09 -16.91,-15.36 -1.47,-1.52 -2.39,-2.45 -2.81,-2.81 -3.94,-3.53 -7.46,-5.48 -10.78,-6 -3.68,-0.59 -6.79,0.64 -9.29,3.47 -3.11,3.53 -3.35,8.88 -0.69,15.96 2.86,7.64 3.17,10.4 3.06,11.4 -0.13,1.98 -0.8,4.04 -1.98,6.15 -1.39,2.37 -3.94,5.64 -7.64,9.78l-134.22 150.2c-4.4,4.94 -8,8.24 -10.76,9.86 -2.5,1.44 -4.76,1.98 -7.1,1.7 -2.01,-0.31 -4.48,-0.82 -7.21,-1.54 -8.6,-1.96 -14.21,-1.24 -17.3,2.24 -3.58,3.99 -3.27,7.72 -2.39,10.17 1.08,3.04 4.07,6.69 9.37,11.43l63.7 56.93c39.15,34.98 78.75,52.71 117.75,52.71 0,0 0.46,0 0.49,0 39.25,-0.15 75.18,-18.17 106.73,-53.53 30.34,-33.97 43.78,-71.11 39.92,-110.41 -3.86,-39.2 -24.5,-75.8 -61.36,-108.74z"/>
    <path class="fil0" d="M1499.64 4437.34l-26.59 -15.16c-6.95,-3.94 -12.12,-5.84 -15.83,-5.84 -0.08,0 -0.72,0 -0.77,0 -3.76,0.28 -8.18,2.63 -13.56,7.05 -23.65,20.38 -49.44,40.87 -76.64,60.92 -25.94,19.1 -53.58,38.12 -82.18,56.6 4.66,-57.83 11.43,-117.62 20.18,-178.33 1.24,-9.21 2.03,-15.29 2.34,-18.14 0.93,-6.41 0.46,-11.17 -1.44,-14.46 -1.83,-3.32 -6.69,-7.13 -15.26,-11.97l-28.34 -16.11c-7.05,-4.07 -12.1,-6.13 -15.47,-6.36 -0.05,0 -0.75,0 -0.82,0 -2.45,0 -5.89,0.88 -8.24,5.07 -1.62,2.73 -2.16,5.33 -1.62,7.67 0.44,2.24 1.96,4.66 4.66,7.59 1.47,1.8 3.45,3.89 5.89,6.36 3.45,3.65 3.99,4.68 4.01,4.76 0.67,2.39 0.72,4.99 0.23,7.7 -0.59,2.96 -1.67,5.84 -3.27,8.7l-102.66 167.96c-6.38,10.68 -11.02,17.42 -13.79,20.05 -2.52,2.39 -5.04,3.55 -7.75,3.71 -2.55,0.13 -6.18,-0.05 -10.5,-0.54 -8.57,-1.03 -13.87,0.8 -16.29,5.07 -2.52,4.48 -1.39,7.77 0.03,9.73 1.08,1.54 3.6,4.2 13,9.52l37.81 21.46c10.6,6.1 14.49,7.05 16.52,7.23 0.31,0.08 0.62,0.1 0.9,0.1 2.32,0 5.58,-0.93 8,-5.07 2.52,-4.43 1.44,-9.78 -3.19,-15.98 -0.41,-0.54 -0.77,-1.03 -0.85,-1.08 -0.51,-0.77 -1.24,-1.8 -2.14,-2.86 -3.53,-4.81 -4.56,-7.52 -4.74,-8.85 -0.15,-1.42 0.23,-3.42 1.21,-6.02 1.08,-2.99 2.99,-6.79 5.61,-11.4l96.33 -162.19c-10.01,76.31 -16.14,129.56 -18.68,162.43 -3.6,47.12 -0.51,55.69 3.35,57.88 1.06,0.62 2.34,0.9 3.81,0.9 4.22,0 12.77,-2.11 37.96,-20.2 5.66,-4.07 10.09,-7.26 13.36,-9.52 34.95,-24.42 64.29,-45.58 87.22,-62.8 15.36,-11.58 27.28,-20.85 35.98,-28.1l-87.35 158.72 -3.06 5.35c-3.5,6.18 -5.79,8.83 -7.1,9.99 -1.72,1.49 -3.5,2.21 -5.61,2.26 -1.93,0.13 -4.86,-0.13 -8.8,-0.72 -8.6,-1.52 -14.08,0.13 -16.7,4.63 -1.93,3.42 -1.83,6.82 0.33,9.91 1.85,2.5 6.13,5.64 13.02,9.57l41.08 23.34c8.52,4.86 14.23,7.36 17.55,7.67 0.31,0.05 0.62,0.05 0.9,0.05 2.39,0 5.71,-0.85 8.03,-4.92 2.37,-4.14 1.44,-9.14 -2.7,-14.75l-0.82 -1.11c-0.72,-1.06 -1.34,-1.83 -1.67,-2.26 -1.75,-2.75 -2.96,-4.89 -3.55,-6.41 -0.57,-1.42 -0.9,-2.81 -1.03,-4.27 -0.15,-1.36 0.05,-4.01 1.93,-8.88 1.62,-4.17 4.84,-10.71 9.52,-19.46l89.31 -162.58c3.35,-5.89 6,-9.91 8.08,-12.33 1.9,-2.19 3.73,-3.5 5.66,-3.91 0.88,-0.39 4.27,-0.31 8.88,0.82 9.09,2.29 13.59,2.65 17.76,0.18 1.88,-1.16 3.47,-2.83 4.74,-5.04 2.21,-3.89 1.9,-7.95 -0.85,-11.76 -2.39,-3.24 -7.39,-7.03 -15.31,-11.56z"/>
    <path class="fil0" d="M1832.08 4874.66c0,0 0,0 0.03,0l-0.03 0.03 0 -0.03zm-139.8 -178.23c13.1,-17.22 27,-34.26 41.33,-50.78 13.92,-15.98 28.49,-31.58 43.32,-46.33 3.32,22.47 6,44.42 7.93,65.4 1.93,21.49 3.09,42.57 3.47,62.67l-96.05 -30.96zm139.65 149.4c-0.57,-2.42 -1.16,-11.89 -0.85,-43.21 0.28,-25.12 -0.03,-48.62 -0.9,-69.8 -2.6,-51.99 -6.87,-95.54 -12.77,-129.56 -8.11,-46.71 -14.98,-54.56 -20.05,-56.21 -0.59,-0.13 -1.21,-0.28 -1.88,-0.28 -3.89,0 -12.02,2.96 -37.52,28.16 -19.95,19.71 -45.09,47.82 -74.74,83.52 -18.68,22.65 -38.22,47.38 -57.99,73.58 -24.5,32.45 -31.76,41.13 -33.41,42.54 -0.33,0.23 -1.78,1.18 -6.87,2.57 -4.92,1.42 -7.95,3.78 -9.06,7.15 -1.26,3.94 -0.39,7.57 2.52,10.4 2.52,2.47 7.13,4.79 14.18,7.05l33.64 10.86c6.33,2.01 11.17,2.78 15,2.34 5.28,-0.72 7.39,-3.96 8.21,-6.54 1.62,-4.99 0,-9.88 -4.74,-14.52 -2.01,-2.01 -3.5,-3.63 -4.45,-4.92 -1.7,-2.03 -2.75,-3.94 -3.24,-5.77 -0.46,-1.85 -0.39,-3.68 0.26,-5.66 1.57,-4.92 5.61,-12.46 12.04,-22.47 6.2,-9.63 14.52,-21.23 24.66,-34.38l115.92 37.37c0.88,18.56 1.26,33.82 1.18,45.35 -0.08,14.36 -1.03,20.28 -1.8,22.73 -0.67,1.96 -1.42,3.6 -2.21,4.68 -0.64,0.88 -1.29,1.39 -1.83,1.52 -1.49,0.33 -3.45,0.72 -5.89,1.16 -9.34,1.65 -14.98,5.17 -16.73,10.55 -1.7,5.25 0.31,8.78 2.29,10.71 2.45,2.52 7.13,4.81 14.28,7.13l35.13 11.32c8.49,2.73 14.13,3.99 17.76,3.99 0.05,0 0.64,0 0.69,0 4.25,-0.18 7.26,-2.32 8.49,-6.1 1.44,-4.43 0.13,-9.57 -3.81,-15.36 -4.3,-6.28 -5.3,-8.88 -5.53,-9.91z"/>
    <path class="fil0" d="M2294.29 4806.56c-4.86,40.1 -19.35,69.85 -43.13,88.48 -23.78,18.61 -56.29,25.66 -96.54,20.74 -14.82,-1.78 -24.24,-5.3 -27.95,-10.45 -2.6,-3.58 -4.92,-14.36 -1.18,-45.17l19.3 -160.29c1.06,-8.57 2.26,-14.9 3.6,-18.71 1.24,-3.53 3.04,-6.31 5.4,-8.31 2.7,-2.32 6.15,-3.81 10.27,-4.4 1.36,-0.15 3.01,-0.28 4.97,-0.28 4.56,0 10.89,0.51 18.87,1.44 39.2,4.74 68.25,18.89 86.32,42.18 18.09,23.21 24.84,55.1 20.07,94.76zm-96.72 -162.3c-6.23,-0.75 -15.88,-1.75 -32.3,-3.29 -14.77,-1.39 -26.25,-2.55 -34.13,-3.5 -7.36,-0.9 -14.95,-1.85 -22.67,-2.93 -2.06,-0.39 -3.37,-0.59 -3.91,-0.64 -5.3,-0.67 -9.29,-0.26 -12.25,1.18 -3.22,1.65 -5.17,4.48 -5.64,8.21 -0.54,4.68 2.34,9.19 8.54,13.43 6.67,4.63 8.54,6.77 9.09,7.64 1,1.67 1.62,3.73 1.85,6.18 0.26,2.68 0.03,6.87 -0.64,12.43l-24.09 199.95c-0.95,8.03 -2.29,12.17 -3.22,14.26 -1.21,2.65 -2.81,4.45 -4.81,5.46 -1.65,0.82 -3.91,1.75 -6.79,2.88 -8.13,3.29 -12.38,7.1 -12.92,11.66 -0.62,5.33 1.75,8.24 3.89,9.73 2.7,1.88 7.34,3.19 14.21,4.04l84.8 10.22c11.43,1.36 22.52,2.06 32.97,2.06 37.45,0 69.13,-8.93 94.15,-26.56 32.09,-22.55 51.24,-57.88 56.9,-104.98 5.43,-45.22 -4.81,-83.39 -30.5,-113.4 -25.61,-29.93 -63.49,-48.1 -112.52,-54.02z"/>
    <path class="fil0" d="M2790.08 4889.05c-1.62,-1.62 -3.94,-2.47 -6.87,-2.47 -0.41,0 -0.8,0.05 -1.24,0.05 -3.45,0.33 -7.77,3.73 -13.49,10.78 -4.99,6.13 -9.73,10.63 -14.03,13.28 -6.72,4.38 -14.93,7.8 -24.48,10.22 -9.73,2.5 -21.72,4.3 -35.7,5.35l-43.03 3.14c-2.73,0.23 -5.28,0.33 -7.62,0.33 -10.4,0 -14.82,-2.11 -16.68,-3.86 -2.47,-2.32 -5.74,-9.21 -7.21,-28.98l-6.31 -85.27 77.26 -5.71c6.87,-0.51 12.15,-0.69 16.09,-0.41 4.53,0.26 6.85,1.03 8.11,1.72 1.34,0.59 3.35,1.72 6.13,3.55 4.92,3.17 8.78,4.71 12.38,4.71 0,0 0.05,0 0.08,0 4.5,-0.33 6.56,-2.83 7.52,-4.81 1.21,-2.5 1.57,-6.25 1.21,-11.56l-1.7 -22.13c-0.39,-5.66 -1.34,-9.29 -2.88,-11.32 -1.24,-1.6 -3.91,-3.47 -8.06,-3.17 -3.14,0.23 -6.97,2.37 -11.61,6.54 -2.63,2.29 -4.45,3.73 -5.84,4.68 -0.93,0.64 -2.99,1.65 -7.46,2.6 -3.86,0.77 -9.06,1.44 -15.98,1.96l-77.26 5.69 -4.61 -62c-1.03,-13.95 -0.67,-19.46 -0.21,-21.7 0.62,-2.81 1.75,-4.79 3.71,-6.1 3.14,-2.32 7.88,-4.14 14.03,-5.43 6.46,-1.39 16.6,-2.6 30.94,-3.68 20.9,-1.6 37.27,-1.93 48.75,-1.16 11.32,0.77 19.97,2.73 25.71,5.82 4.12,2.19 8.78,5.56 13.85,9.96 5.61,4.81 9.68,7.1 13.23,7.1 0.05,0 0.05,0 0.05,0 3.73,-0.26 5.56,-2.03 6.43,-3.53 1.11,-1.8 1.49,-4.45 1.29,-8.13 -2.03,-27.13 -5.28,-34.18 -7.49,-37.11 -3.81,-4.92 -12.2,-6.79 -25.94,-5.79l-173.54 12.87c-6.92,0.51 -11.66,1.65 -14.46,3.47 -3.11,2.14 -4.58,5.38 -4.25,9.45 0.33,4.68 4.04,8.62 10.99,11.56 7.44,3.29 9.7,5.02 10.37,5.74 1.31,1.49 2.29,3.35 3.01,5.71 0.51,1.83 1.24,5.43 1.72,12.28l14.9 200.88c0.51,6.56 0.39,11.48 -0.36,14.59 -0.72,2.83 -1.9,4.89 -3.71,6.31 -1.47,1.11 -3.45,2.5 -6.07,4.12 -7.36,4.79 -10.76,9.34 -10.5,14 0.49,5.33 3.35,7.7 5.74,8.75 2.14,0.93 5.2,1.42 9.32,1.42 1.65,0 3.42,-0.08 5.4,-0.21l174.73 -12.95c10.76,-0.85 18.53,-1.9 23.19,-3.32 4.97,-1.49 8.54,-3.73 10.81,-6.92 0.88,-1.49 2.19,-4.89 3.86,-16.73 1.16,-8.62 1.42,-17.32 0.8,-25.87 -0.31,-3.83 -1.29,-6.56 -3.01,-8.31z"/>
    <path class="fil0" d="M3333.72 4612.71c0.44,-21 1.65,-42.29 3.6,-63.36 16.75,14.9 32.87,30.06 48.02,45.17 15,14.95 29.42,30.37 42.77,45.81l-93.5 37.83c-1,-21.93 -1.26,-43.96 -0.9,-65.45zm214.44 94.58c-7.39,-2.03 -9.75,-3.37 -10.58,-4.04 -2.03,-1.54 -8.57,-8.44 -28.36,-32.66 -16.11,-19.64 -31.4,-37.47 -45.48,-52.99 -35.21,-38.09 -66.43,-68.79 -92.86,-91.21 -24.48,-20.74 -40.28,-30.83 -48.33,-30.83 -1.11,0 -2.16,0.23 -3.06,0.59 -4.07,1.62 -8.7,8.44 -12.38,46.69 -2.68,27.92 -3.96,65.55 -3.78,112.01 0.15,29.98 1.06,61.49 2.7,93.6 1.57,32.74 2.08,51.01 1.57,54.12 -0.03,0.36 -0.49,1.9 -3.6,6.36 -2.86,4.17 -3.65,7.98 -2.29,11.25 1.54,3.89 4.48,6.07 8.57,6.41 0.31,0.03 0.67,0.03 1.03,0.03 3.45,0 8.13,-1.24 14.34,-3.73l32.79 -13.23c6.25,-2.57 10.55,-5.12 13,-7.77 2.88,-3.11 3.6,-6.69 2.11,-10.35 -1.93,-4.84 -6.31,-7.59 -12.97,-8.13 -2.83,-0.18 -4.97,-0.49 -6.54,-0.85 -2.52,-0.46 -4.61,-1.26 -6.18,-2.42 -1.52,-1.08 -2.6,-2.55 -3.4,-4.45 -2.01,-4.89 -3.71,-13.25 -5.2,-24.94 -1.44,-11.74 -2.47,-25.89 -3.11,-42.23l112.93 -45.63c12.64,13.79 22.73,25.25 29.98,34 9.14,11.12 12.2,16.24 13.15,18.63 0.8,1.96 1.24,3.65 1.31,5.04 0.1,1.03 -0.08,1.78 -0.44,2.34 -0.88,1.18 -2.14,2.75 -3.76,4.61 -6.15,7.26 -8.16,13.56 -6.05,18.84 2.11,5.12 5.84,6.51 8.57,6.77 3.63,0.33 8.49,-0.85 15.55,-3.73l34.23 -13.85c8.6,-3.5 14.08,-6.36 16.7,-8.72 3.17,-2.91 4.07,-6.54 2.63,-10.19 -1.78,-4.3 -6.05,-7.44 -12.79,-9.32z"/>
    <path class="fil0" d="M3760.31 4616.32c0,0 0,0 0.03,0l-0.03 0.03 0 -0.03zm169.01 -154.14c-1.96,-3.04 -3.96,-4.94 -6,-5.69 -2.21,-0.88 -4.84,-0.49 -7.62,1.21 -2.83,1.85 -5.77,6.41 -9.27,14.36 -3.27,7.34 -5.77,12.43 -7.62,15.57 -5.1,8.21 -11.81,16.14 -20.02,23.52 -8.16,7.39 -21.49,16.96 -39.56,28.44 -24.84,15.85 -34.59,19.2 -38.4,19.2 -3.45,0 -9.42,-2.91 -18.14,-16.65l-104.7 -164.36c-3.47,-5.46 -5.64,-9.81 -6.38,-12.95 -0.72,-2.91 -0.51,-5.48 0.59,-7.77 1.11,-2.08 2.78,-4.74 4.97,-8 4.99,-7.1 6.05,-13.07 3.09,-17.68 -2.37,-3.71 -5.53,-4.5 -7.72,-4.5 -0.49,0 -1,0.03 -1.44,0.05 -3.27,0.49 -8.36,2.96 -15.65,7.62l-41.38 26.3c-6,3.89 -9.57,7 -11.07,9.93 -1.8,3.32 -1.54,6.9 0.64,10.32 2.57,3.96 7.54,5.58 15.18,5.04 2.75,-0.23 5.12,-0.36 7,-0.36 3.09,0 4.3,0.26 4.84,0.46 1.85,0.64 3.6,1.83 5.38,3.6 1.88,1.93 4.38,5.28 7.34,9.99l108.17 169.89c3.6,5.61 5.82,9.99 6.56,13.05 0.75,2.78 0.64,5.2 -0.23,7.26 -0.77,1.7 -1.9,3.86 -3.42,6.59 -4.2,7.64 -5.04,13.28 -2.6,17.22 2.7,4.17 6.07,5.04 8.44,5.04 0.05,0 0.64,0 0.69,0 3.27,-0.23 7.59,-2.11 13.61,-5.92l146.73 -93.48c9.29,-5.95 14.8,-10.01 17.27,-12.74 2.7,-2.99 4.3,-6.13 4.68,-9.55 0.13,-2.7 -1.16,-7.52 -3.91,-14.8 -2.68,-7.18 -6.07,-14 -10.06,-20.23z"/>
    <path class="fil0" d="M4231.63 4210.34c-4.92,17.63 -19.12,37.42 -42.21,58.96 -20.9,19.51 -29.85,23.68 -33.79,23.76 -3.78,0 -10.63,-2.57 -22.11,-14.9l-48.9 -52.43c3.89,-5.2 9.03,-12.38 15.29,-21.31 6.97,-9.93 15.52,-22.57 26.07,-38.43 18.63,-12.23 36.44,-18.56 52.97,-18.84l1.13 0c15.91,0 29.21,5.61 39.56,16.78 12.92,13.82 16.86,29.01 11.99,46.4zm-118.13 -88.12c-6.54,22.47 -22.62,50.47 -47.69,83.34l-55.69 -59.68c-13.43,-14.41 -15.26,-21.46 -14.41,-24.81 0.9,-3.63 6.43,-12.04 27.33,-31.55 19.28,-17.96 35.62,-28.59 48.67,-31.6 2.75,-0.64 5.48,-0.98 8.06,-0.98 9.47,0 17.78,4.07 25.53,12.38 11.94,12.77 14.7,30.58 8.21,52.91zm140.03 12.02c-14.98,-16.09 -33.59,-24.3 -55.69,-24.4 -18.71,0 -37.45,6.05 -56.03,17.91 7.28,-16.21 10.99,-31.66 10.99,-46.07 0.03,-17.3 -5.07,-31.42 -15.03,-42.13 -15.62,-16.7 -33.25,-23.91 -52.58,-21.54 -18.92,2.34 -40,14.26 -62.67,35.39l-85.88 80.09c-5.04,4.76 -8.03,8.6 -9.01,11.76 -0.8,2.45 -1,6.18 2.55,9.99 3.14,3.42 8.47,4.22 15.83,2.16 5.84,-1.54 9.81,-2.26 11.58,-2.01 2.01,0.28 3.99,1.16 6.02,2.6 2.08,1.42 5.07,4.22 9.01,8.44l137.38 147.24c4.48,4.81 7.46,8.72 8.83,11.63 1.26,2.65 1.6,5.07 1.11,7.23 -0.44,1.75 -1.16,4.12 -2.19,7.05 -2.75,8.31 -2.55,14.03 0.59,17.4 2.24,2.39 4.79,3.63 7.49,3.63 0.82,0 1.65,-0.1 2.42,-0.28 3.19,-0.85 7.18,-3.58 12.3,-8.31l81.74 -76.28c18.74,-17.5 31.45,-31.06 37.73,-40.33 6.43,-9.42 10.84,-19.33 13.2,-29.49 2.78,-12.74 2.52,-25.61 -0.95,-38.14 -3.45,-12.64 -9.78,-23.94 -18.74,-33.54z"/>
    <path class="fil0" d="M4509.02 3741.44c-21.72,-15.65 -45.58,-31.63 -70.91,-47.48 -25.63,-16.09 -39.22,-24.73 -41.59,-26.43 -2.34,-1.7 -3.91,-3.47 -4.66,-5.28 -0.41,-1.08 -0.98,-3.81 -0.13,-10.35 0.1,-0.62 0.18,-1.36 0.21,-2.03 1.08,-6.54 -0.49,-11.38 -4.61,-14.46 -3.81,-2.63 -7.49,-3.01 -10.78,-1.42 -2.99,1.49 -6.82,5.53 -11.97,12.69l-23.81 33.05c-4.22,5.92 -6.59,10.42 -7.26,13.77 -0.67,3.89 0.67,7.1 3.78,9.37 4.92,3.53 11.56,3.17 19.71,-1.16 9.29,-4.94 12.2,-5.46 13.31,-5.46 3.32,0 12.53,3.22 37.65,18.45 20.95,12.71 47.07,30.32 77.65,52.35 19.41,13.95 33.46,26.48 41.95,37.32 8.29,10.63 13.59,22.19 15.65,34.31 1.39,9.14 0.59,19.17 -2.5,29.85 -3.09,10.84 -8.08,21 -14.7,30.22 -7.41,10.35 -16.21,18.56 -26.2,24.45 -9.83,5.89 -20.46,9.32 -31.63,10.11 -10.66,0.82 -22.03,-1.26 -33.95,-6.18 -12.04,-4.89 -27.13,-13.79 -44.73,-26.51 -27.92,-20.07 -52.09,-39.27 -71.86,-56.96 -25.45,-22.85 -30.24,-30.37 -30.91,-33.07 -0.08,-0.33 -0.51,-2.34 1.26,-11.5 1.57,-7.93 -0.05,-13.74 -4.89,-17.19 -3.76,-2.68 -7.98,-3.01 -11.99,-0.88 -3.6,1.98 -7.8,6.38 -13,13.49l-25.74 35.77c-4.25,6 -6.64,10.6 -7.18,14.21 -0.54,4.04 0.95,7.49 4.4,9.96 5.3,3.81 12.46,3.17 21.52,-2.06l0.75 -0.44c0.8,-0.49 1.42,-0.88 1.67,-1.03 1.34,-0.67 3.04,-0.8 4.86,-0.62 2.08,0.28 3.89,1 5.46,2.11 0.88,0.64 7.75,6.25 35.54,29.37 22.6,18.79 45.27,36.37 67.43,52.35 35.05,25.22 66.76,38.04 94.12,38.04 2.29,0 4.53,-0.1 6.79,-0.26 29.16,-2.29 55.67,-19.79 78.88,-51.94 23.68,-32.92 32.56,-64.73 26.28,-94.53 -6.28,-29.73 -27.72,-58.04 -63.9,-84.01z"/>
    <path class="fil0" d="M4859.25 3300.93c-4.25,-1.9 -9.24,-0.49 -14.39,4.25l-1.52 1.36c-0.75,0.67 -1.29,1.16 -1.6,1.42 -2.55,2.03 -4.5,3.42 -6,4.17 -1.34,0.69 -2.73,1.21 -4.07,1.49 -1.93,0.44 -5.2,0.08 -9.09,-1 -4.14,-1.16 -10.81,-3.6 -20.36,-7.44l-170.92 -72.14c-5.92,-2.6 -10.32,-4.89 -13.07,-6.82 -2.37,-1.62 -3.83,-3.32 -4.5,-5.17 -0.33,-0.85 -0.88,-3.17 -0.03,-8.96 0.75,-5.15 0.93,-8.96 0.67,-11.61 -0.23,-2.26 -1.03,-4.32 -2.34,-6.02 -1.29,-1.8 -3.14,-3.19 -5.48,-4.22 -4.04,-1.78 -8.11,-1.06 -11.56,2.06 -3.06,2.7 -6.31,8.06 -9.99,16.42l-12.33 28c-3.45,7.82 -4.79,13.41 -4.12,17.09 0.67,3.68 3.4,7.88 8.44,12.82 22.91,21.64 45.94,45.19 68.41,69.93 21.75,23.86 43.55,49.44 64.83,75.92 -58.35,1.36 -118.44,0.77 -178.95,-1.67 -9.6,-0.33 -15.91,-0.49 -18.87,-0.49 -6.46,-0.15 -11.12,0.69 -14.26,2.91 -3.06,2.19 -6.31,7.39 -10.27,16.42l-13.15 29.83c-3.27,7.44 -4.81,12.71 -4.76,16.03 0.18,3.89 2.24,6.87 6.07,8.54 2.86,1.29 5.48,1.57 7.8,0.77 2.16,-0.72 4.48,-2.47 6.97,-5.38 1.65,-1.67 3.58,-3.86 5.82,-6.51 3.27,-3.86 4.25,-4.5 4.3,-4.58 2.24,-0.82 4.71,-1.24 7.62,-0.93 2.91,0.21 5.89,1 8.93,2.32l177.61 84.83c11.4,5.33 18.58,9.21 21.39,11.68 2.65,2.26 4.14,4.61 4.48,7.31 0.41,2.6 0.59,6.28 0.59,10.47 -0.08,8.47 2.19,13.74 6.69,15.7 1.57,0.67 3.04,1.03 4.43,1.03 1.96,0 3.76,-0.69 5.3,-2.03 1.42,-1.24 3.71,-4.01 8.11,-13.87l17.48 -39.87c4.97,-11.25 5.51,-15.18 5.48,-17.17 0,-2.63 -1.06,-6.2 -5.89,-8.36 -4.61,-1.98 -10.01,-0.26 -15.29,4.66 -0.64,0.54 -1.16,0.9 -1.29,1.16 -0.72,0.62 -1.6,1.44 -2.57,2.39 -4.45,3.96 -7.03,5.28 -8.31,5.64 -1.36,0.28 -3.5,0.08 -6.18,-0.59 -2.99,-0.75 -6.97,-2.24 -11.86,-4.38l-171.25 -79.17c75.64,2.11 130.61,2.78 163.51,1.85 47.25,-1.21 55.41,-5.2 57.21,-9.29 1.75,-4.04 0.75,-12.23 -23.5,-39.51 -4.07,-4.56 -7.26,-8.21 -9.78,-11.09l-1.06 -1.24c-27.67,-31.97 -51.68,-58.99 -71.45,-80.27 -13.07,-14.13 -23.52,-24.99 -31.66,-32.94l166.85 70.54 5.64 2.5c6.43,2.86 9.39,4.86 10.71,6.1 1.67,1.49 2.57,3.19 2.81,5.28 0.31,1.98 0.36,5.02 0.18,8.85 -0.62,8.57 1.52,14 6.33,16.14 3.6,1.6 6.95,1.11 9.81,-1.34 2.29,-2.11 5.02,-6.69 8.21,-13.92l19.02 -43.29c5.28,-12.07 5.82,-16.14 5.79,-18.25 -0.08,-3.83 -2.11,-6.74 -5.79,-8.36z"/>
    <path class="fil1" d="M4957.87 2899.57c-13.25,-24.19 -34.9,-39.76 -64.39,-46.3 -14.72,-3.32 -28.62,-3.06 -41.26,0.64 -12.61,3.78 -24.01,11.27 -33.79,22.19 -7.8,8.49 -16.68,24.71 -27.2,49.49 -5.35,12.23 -9.37,21.21 -12.35,27.46 -8.06,16.39 -16.86,27.82 -26.25,33.84 -9.19,5.95 -20.13,7.59 -32.74,4.74 -14.54,-3.24 -24.81,-10.55 -31.5,-22.31 -6.54,-11.71 -8.06,-25.97 -4.43,-42.29 2.14,-9.57 6,-18.58 11.48,-26.82 5.51,-8.24 12.84,-15.8 21.8,-22.44 5.4,-3.89 11.89,-7.95 19.97,-12.46 11.38,-6.38 13.41,-9.47 13.92,-11.61 0.95,-4.09 -0.51,-6.41 -1.83,-7.64 -1.08,-1.08 -3.4,-2.5 -11.14,-4.22l-6.79 -1.49c-10.37,-2.32 -17.14,-3.06 -20.85,-2.68 -3.96,0.51 -7.64,2.11 -11.17,4.86 -8.13,6.36 -15.8,16.27 -22.75,29.57 -6.92,13.18 -12.25,28.03 -15.78,44.06 -6.54,29.21 -3.81,54.67 8,75.69 11.86,21.08 31.19,34.77 57.42,40.59 11.17,2.5 22.29,2.42 32.97,-0.26 10.78,-2.73 20.62,-7.85 29.11,-15.26 6.28,-5.3 12.15,-12.38 17.5,-21.03 5.38,-8.65 13.2,-24.58 23.21,-47.25 11.43,-26.1 22.16,-43.24 32.07,-50.93 9.63,-7.54 21.7,-9.78 36.16,-6.49 17.6,3.89 29.91,13.72 37.68,29.96 7.75,16.24 9.14,36.06 4.01,58.91 -3.27,14.77 -9.16,27.33 -17.48,37.34 -8.29,10.06 -19.53,18.17 -33.35,24.14 -3.53,1.49 -8.39,3.04 -14.93,4.63 -10.53,2.52 -16.57,6.82 -17.86,12.74 -1.06,4.56 -0.44,8.57 1.7,11.99 2.21,3.4 5.66,5.66 10.29,6.74 2.11,0.44 4.35,0.69 6.72,0.69 5.43,0 11.84,-1.21 18.92,-3.63 9.96,-3.35 19.84,-8.54 29.39,-15.49 11.2,-8.62 20.59,-19.17 28,-31.45 7.41,-12.33 12.97,-26.53 16.45,-42.31 7.31,-32.92 4.38,-61.85 -8.93,-85.94"/>
    <path class="fil0" d="M930.85 837.27c-6.28,18.81 -22.7,39.61 -48.77,61.92 -23.52,19.97 -33.48,24.22 -37.78,24.22 -4.09,-0.1 -11.45,-3.14 -23.37,-17.06l-50.26 -58.91c4.38,-5.3 10.22,-12.64 17.73,-22.42 8.11,-10.47 17.99,-23.76 30.27,-40.43 20.15,-12.04 39.22,-18.14 56.67,-18.14l1.67 0.05c17.81,0.36 32.35,7.1 43.26,19.89 13.28,15.6 16.75,32.2 10.58,50.88zm-123.13 -100.27c-8.24,23.99 -27.1,53.66 -56.11,88.17l-57.19 -67.07c-13.79,-16.19 -15.42,-23.94 -14.31,-27.59 1.18,-3.89 7.59,-12.77 31.24,-33.02 21.72,-18.53 40.02,-29.31 54.36,-32.02 2.55,-0.51 5.04,-0.72 7.44,-0.72 10.68,0 20.25,4.84 28.49,14.52 12.25,14.39 14.31,33.82 6.07,57.73zm150.35 19.07c-15.31,-17.94 -34.9,-27.56 -58.24,-28.65 -20.56,-0.98 -41.41,4.86 -62.44,17.19 8.88,-17.32 13.77,-34 14.54,-49.72 0.9,-18.66 -3.81,-34.1 -14,-46.02 -15.93,-18.71 -34.59,-27.1 -55.49,-25.56 -20.51,1.72 -43.91,13.67 -69.49,35.49l-96.98 82.74c-5.74,4.99 -9.14,8.96 -10.35,12.25 -1.36,3.71 -0.59,7.41 2.21,10.71 3.27,3.83 8.9,4.81 16.83,2.99 6.72,-1.6 11.63,-1.93 12.77,-1.7 2.14,0.41 4.27,1.47 6.36,3.06 2.29,1.72 5.43,4.94 9.37,9.6l140.81 164.95c4.63,5.46 7.64,9.83 8.96,12.95 1.21,2.93 1.47,5.56 0.77,8 -0.54,1.88 -1.47,4.4 -2.7,7.49 -3.37,8.8 -3.47,14.95 -0.28,18.63 2.37,2.78 5.12,4.22 8.18,4.22 0.69,0 1.44,-0.08 2.19,-0.26 3.4,-0.75 7.7,-3.42 13.56,-8.36l92.34 -78.86c21.16,-18.02 35.57,-32.09 42.85,-41.82 7.39,-9.86 12.69,-20.33 15.75,-31.24 3.76,-13.61 4.07,-27.44 1.03,-41.1 -3.09,-13.77 -9.32,-26.2 -18.56,-36.98z"/>
    <path class="fil0" d="M1278.71 643.94l0 0.03 0 -0.03zm200.31 -158.2c-1.9,-3.65 -3.99,-5.87 -6.41,-6.85 -2.47,-1.06 -5.48,-0.72 -8.88,1.06 -3.29,1.65 -6.1,6.82 -8.88,16.27 -2.39,8.24 -5.22,14.72 -8.44,19.23 -4.89,7.15 -11.68,14.05 -20.18,20.54 -8.57,6.59 -19.84,13.49 -33.48,20.51l-41.59 21.46c-12.15,6.25 -21.21,8.6 -26.02,6.87 -3.45,-1.26 -9.6,-6.74 -19.46,-25.84l-42.29 -81.95 75 -38.66c6.54,-3.32 11.89,-5.79 15.93,-7.26 3.32,-1.26 6.02,-1.85 7.98,-1.85 0.23,0 0.46,0 0.85,0.05 1.7,0.05 4.27,0.36 7.67,0.93 6.74,1.16 11.35,1 14.34,-0.57 4.22,-2.21 5.22,-5.43 5.35,-7.8 0.1,-2.93 -1.08,-6.82 -3.65,-11.81l-10.99 -21.31c-2.81,-5.4 -5.22,-8.57 -7.64,-9.93 -2.65,-1.47 -5.79,-1.34 -9.14,0.33 -3.01,1.49 -5.79,5.12 -8.75,11.32 -1.6,3.24 -2.86,5.58 -3.86,7.15 -0.67,1.06 -2.32,2.93 -6.43,5.79 -3.6,2.55 -8.7,5.48 -15.13,8.72l-75.02 38.71 -30.78 -59.74c-6.9,-13.36 -8.9,-19.05 -9.34,-21.41 -0.59,-3.06 -0.21,-5.64 1.21,-7.8 2.14,-3.6 6.1,-7.44 11.76,-11.4 5.84,-4.17 15.49,-9.65 29.42,-16.86 20.15,-10.4 36.39,-17.76 48.23,-21.88 11.71,-4.12 21.16,-5.87 28.18,-5.28 5.04,0.51 10.96,1.8 18.12,4.04 8,2.55 12.97,2.99 16.09,1.42 3.5,-1.83 4.53,-4.3 4.79,-6.05 0.31,-2.29 -0.39,-5.07 -2.14,-8.52 -13.46,-25.99 -19.59,-31.58 -23.01,-33.48 -5.77,-3.29 -14.85,-1.57 -28.16,5.28l-167.93 86.58c-6.74,3.53 -10.96,6.61 -12.87,9.57 -2.16,3.27 -2.26,7.05 -0.31,10.91 2.32,4.48 7.62,6.72 15.73,6.77 8.75,0 11.76,0.77 12.82,1.26 1.98,0.9 3.78,2.34 5.48,4.4 1.88,2.32 4.22,6.18 6.92,11.5l99.42 192.74c3.27,6.31 5.2,11.25 5.79,14.64 0.49,3.19 0.15,5.77 -1.11,8 -0.88,1.62 -2.29,3.78 -4.32,6.67 -5.28,7.77 -6.77,13.69 -4.56,18.12 2.6,5.04 6.43,6.13 9.19,6.13 0.03,0 0.21,0 0.21,0 3.47,0 8.21,-1.57 14.95,-5.02l169.07 -87.2c10.66,-5.48 17.78,-9.78 21.77,-13.1 4.35,-3.63 6.9,-7.23 7.77,-11.32 0.23,-1.83 0.13,-5.74 -3.19,-18.17 -2.45,-8.98 -5.84,-17.73 -10.06,-25.94z"/>
    <path class="fil0" d="M1971.83 233.28c-9.81,-10.22 -22.57,-17.45 -37.88,-21.54 -11.94,-3.29 -32.56,-3.86 -61.15,-1.9 -14.52,0.85 -25.2,1.36 -32.69,1.57l-3.19 0c-18.27,0 -32.56,-2.93 -42.52,-8.7 -10.32,-5.89 -17.3,-15.73 -20.72,-29.21 -3.91,-15.39 -1.8,-29.26 6.28,-41.28 8.13,-12.07 21.23,-20.54 38.94,-25.07 10.35,-2.63 21.03,-3.35 31.68,-2.08 10.68,1.29 21.64,4.66 32.45,9.99 6.46,3.37 13.82,7.77 21.85,13.13 13.15,8.78 15.91,8.16 17.91,7.62 4.32,-1.06 5.84,-3.47 6.33,-5.28 0.49,-1.57 0.77,-4.38 -1.39,-12.71l-1.83 -7.28c-2.81,-10.86 -5.3,-17.84 -7.62,-21.18 -2.37,-3.5 -5.74,-6.28 -10.04,-8.31 -10.09,-4.71 -23.42,-7.18 -39.71,-7.36l-1.72 0c-15.75,0 -32.12,2.14 -48.64,6.33 -31.4,8.03 -54.72,23.06 -69.26,44.65 -14.62,21.7 -18.4,46.84 -11.25,74.82 3.06,11.97 8.54,22.55 16.32,31.42 7.8,8.98 17.55,15.85 28.95,20.46 8.18,3.37 17.86,5.56 28.83,6.51 10.94,0.9 30.03,0.64 57.16,-0.8 30.81,-1.83 52.81,0.15 65.11,5.89 12.2,5.64 20.05,16.01 24.04,31.66 4.76,18.58 1.16,35.7 -10.66,50.98 -12.02,15.42 -30.6,26.43 -55.26,32.74 -15.96,4.12 -31.06,4.56 -44.83,1.49 -13.79,-3.11 -27.15,-9.93 -39.76,-20.25 -3.32,-2.78 -7.31,-6.9 -11.76,-12.15 -7.72,-8.9 -14.54,-12.43 -20.95,-10.89 -4.84,1.29 -8.42,3.81 -10.63,7.49 -2.21,3.73 -2.7,8.16 -1.44,13.07 1.85,7.23 7.03,14.98 15.29,23.01 8.16,8 17.99,14.88 29.31,20.56 13.72,6.51 28.54,10.42 44.09,11.53 3.17,0.21 6.38,0.31 9.63,0.31 12.56,0 25.79,-1.72 39.35,-5.17 35.39,-9.06 61.92,-26.05 78.75,-50.5 16.93,-24.5 21.46,-52.91 13.43,-84.34 -4.01,-15.75 -11.02,-28.98 -20.82,-39.22z"/>
    <path class="fil1" d="M2492.51 144.74c-22.49,14.28 -55.49,22.75 -98.11,25.14l-2.6 -102.97c-0.39,-14.57 2.24,-24.68 7.8,-30.01 5.58,-5.35 16.63,-8.29 32.71,-8.7 2.11,-0.08 4.17,-0.08 6.2,-0.08 27.26,0 48.46,4.68 63.06,13.92 15.6,9.91 23.42,24.42 23.91,44.34 0.62,24.81 -10.14,43.91 -32.97,58.35m46.64 -126.37c-22.08,-13.31 -55.98,-19.23 -100.86,-18.27l-96.62 2.39c-7.52,0.21 -12.66,1.16 -15.73,2.96 -3.4,2.06 -5.15,5.38 -5.04,9.73 0.13,5.02 3.89,9.32 11.2,12.92 7.93,3.83 10.29,5.87 10.99,6.74 1.42,1.65 2.39,3.73 3.01,6.38 0.69,2.7 1.11,7.21 1.26,13.31l5.43 216.78c0.21,7.13 -0.21,12.41 -1.18,15.73 -0.9,3.06 -2.37,5.28 -4.45,6.69 -1.72,1.21 -3.99,2.65 -6.79,4.14 -8.18,4.76 -12.1,9.45 -11.99,14.34 0.15,5.69 3.14,8.34 5.58,9.57 2.78,1.36 7.21,2.08 13.54,2.08l61.36 -1.54c7.57,-0.18 12.69,-1.11 15.7,-2.81 2.39,-1.34 5.2,-4.14 5.1,-9.86 -0.1,-4.94 -4.3,-9.19 -12.71,-12.92l-1.03 -0.46c-1.62,-0.64 -3.76,-1.47 -6.36,-2.39 -5.46,-2.06 -7.46,-3.22 -8,-3.6 -1.49,-1.65 -2.55,-3.73 -3.24,-6.46 -0.75,-2.81 -1.21,-7.41 -1.36,-13.56l-1.8 -71.32c57.19,-2.65 101.79,-14 132.54,-33.59 31.68,-20.2 47.3,-48.08 46.4,-82.92 -0.72,-29.06 -12.48,-50.6 -34.92,-64.06"/>
    <path class="fil0" d="M3045.06 357.46c-31.94,-6.92 -54.87,-24.66 -68.15,-52.71 -13.38,-28.28 -15.52,-64.03 -6.38,-106.34 9.21,-42.44 25.92,-74.15 49.75,-94.25 17.58,-14.77 37.68,-22.24 59.76,-22.24 7.72,0 15.83,0.93 24.09,2.68 32.09,6.92 55.1,24.63 68.38,52.55 13.43,28.18 15.6,63.93 6.36,106.34 -9.11,42.34 -25.89,74.02 -49.75,94.22 -23.73,20.05 -51.94,26.69 -84.06,19.74zm160.44 -239.2c-10.68,-15.93 -24.32,-29.29 -40.41,-39.71 -16.09,-10.42 -34.51,-17.91 -54.82,-22.34 -19.97,-4.32 -39.74,-5.02 -58.68,-2.14 -18.89,2.93 -36.78,9.45 -53.07,19.38 -20.31,12.53 -36.98,28.44 -49.62,47.2 -12.59,18.71 -21.8,41.28 -27.38,67.15 -5.64,25.79 -6.59,50.19 -2.83,72.53 3.73,22.34 12.3,43.8 25.53,63.8 10.78,15.98 24.3,29.29 40.25,39.66 15.85,10.37 34.2,17.91 54.36,22.29 12.25,2.6 24.42,3.96 36.11,3.96 7.77,0 15.55,-0.62 23.11,-1.78 18.97,-2.88 36.86,-9.42 53.22,-19.35 20.1,-12.56 36.7,-28.46 49.21,-47.23 12.56,-18.76 21.8,-41.49 27.46,-67.56 5.64,-26.1 6.64,-50.6 2.93,-72.76 -3.65,-22.19 -12.2,-43.44 -25.38,-63.11z"/>
    <path class="fil0" d="M3846.27 331.41l-43.65 -21.1c-7.64,-3.73 -13.2,-5.64 -16.93,-5.89l-0.9 -0.05c-3.96,0 -6.95,1.8 -8.57,5.2 -2.42,4.81 -1.57,10.24 2.5,16.11 1.21,1.57 2.06,2.93 2.65,3.99 2.39,4.04 3.09,6.18 3.22,7.28 0.21,1.44 -0.08,2.96 -0.85,4.56 -1.47,2.99 -9.73,10.37 -48.75,26.1 -28.98,11.68 -66.76,24.6 -112.32,38.45l49.05 -101.22c3.11,-6.46 5.87,-10.94 8.18,-13.43 2.08,-2.24 4.35,-3.45 6.97,-3.73 1.83,-0.23 4.2,-0.33 7.05,-0.33l1.31 0c9.42,-0.44 15.03,-2.81 17.22,-7.23 1.88,-3.89 1.67,-7.7 -0.59,-10.94 -2.03,-2.91 -6.31,-5.89 -13.07,-9.19l-47.95 -23.21c-6.38,-3.11 -11.2,-4.61 -14.7,-4.61 -0.05,0 -0.64,0 -0.67,0 -3.96,0.26 -7.08,2.42 -8.9,6.33 -2.19,4.53 -0.82,10.09 4.01,16.57 5.3,7.13 6.46,9.93 6.67,11.04 0.49,2.11 0.39,4.48 -0.21,7.03 -0.69,2.81 -2.45,7.13 -5.02,12.43l-94.58 195.16c-3.11,6.41 -5.95,10.91 -8.36,13.43 -2.19,2.29 -4.45,3.58 -6.92,3.89 -2.01,0.28 -4.68,0.44 -8,0.54 -9.39,0.49 -15.06,2.86 -17.22,7.23 -2.45,5.12 -1.03,8.85 0.57,11.09 2.08,2.81 6.38,5.79 13.13,9.09l47.95 23.16c6.49,3.19 11.35,4.76 15.24,4.76 2.75,-0.18 6.54,-1.36 9.09,-6.49 2.16,-4.53 0.72,-10.14 -4.4,-16.73 -5.53,-7.23 -6.61,-9.83 -6.82,-10.78 -0.41,-2.24 -0.26,-4.71 0.39,-7.39 0.69,-2.83 2.39,-7.1 5.04,-12.59l28.08 -57.83c11.92,-3.29 23.57,-6.61 34.54,-9.86 10.24,-3.14 20.36,-6.31 30.24,-9.52 11.07,32.66 18.32,64.08 21.59,93.45 3.27,29.73 2.52,49.62 -2.03,59.22 -1.06,2.14 -2.68,3.11 -5.84,3.11 -0.08,0 -0.08,0 -0.1,0 -1.65,0 -3.04,0.08 -4.5,0.18 -4.48,0.69 -7.39,1.52 -9.27,2.5 -2.08,1.13 -3.73,2.86 -4.76,5.12 -2.75,5.66 -1.06,9.7 0.88,12.17 2.37,2.99 7.85,6.54 16.68,10.84l37.45 18.14c6.36,3.11 11.5,4.61 15.78,4.61 0.44,0 0.88,-0.03 1.31,-0.03 4.76,-0.41 8.44,-2.99 10.66,-7.49 2.14,-4.38 0.67,-10.11 -4.5,-17.5 -1.67,-2.37 -2.99,-4.27 -3.89,-5.69 -0.85,-1.24 -2.19,-4.94 -2.06,-16.63 0.08,-3.47 0.03,-6.15 -0.08,-7.95 -0.88,-35.36 -3.6,-67.64 -8.29,-95.9 -4.58,-27.2 -10.96,-51.4 -19.15,-72.06 22.39,-7.36 57.57,-21.31 107.37,-42.59l4.56 -2.06c6.46,-2.73 14.1,-4.3 22.67,-4.66 10.14,-0.44 15.75,-2.57 17.84,-6.77 1.98,-4.09 1.62,-8 -1,-11.4 -2.29,-2.88 -7.23,-6.1 -15,-9.93z"/>
    <path class="fil0" d="M4349.4 676l-147.29 -118.31c-5.89,-4.74 -10.47,-7.39 -13.92,-7.9 -4.07,-0.64 -7.44,0.75 -10.19,4.17 -3.14,3.89 -3.01,9.65 0.28,17.06 3.4,7.7 4.07,10.89 4.04,12.23 -0.05,2.21 -0.64,4.48 -1.83,6.87 -1.24,2.5 -3.81,6.23 -7.67,10.96l-135.84 169.07c-4.4,5.53 -8.13,9.32 -11.04,11.25 -2.73,1.72 -4.89,2.65 -7.7,2.24 -1.93,-0.18 -4.48,-0.62 -7.88,-1.29 -9.32,-1.67 -15.34,-0.54 -18.4,3.22 -3.55,4.45 -3.01,8.36 -1.93,10.96 1.39,3.22 4.89,7.05 10.76,11.71l148.32 119.16c8.98,7.26 16.01,12.17 20.8,14.62 3.83,1.85 7.34,2.81 10.47,2.81 0.98,0 1.93,-0.08 3.01,-0.33 1.83,-0.51 5.35,-2.21 15.29,-10.27 7.21,-5.84 13.82,-12.46 19.69,-19.74 2.52,-3.14 3.76,-6.07 3.65,-8.65 -0.05,-2.73 -1.62,-5.35 -4.61,-7.72 -2.88,-2.34 -8.67,-2.78 -18.43,-1.47 -8.44,1.13 -15.49,1.18 -21,0.08 -8.47,-1.52 -17.58,-4.92 -27,-10.09 -9.47,-5.2 -20.38,-12.71 -32.33,-22.29l-36.47 -29.31c-13.41,-10.81 -16.57,-17.37 -16.83,-20.95 -0.26,-3.65 2.26,-11.53 15.67,-28.31l57.78 -71.86 65.76 52.84c5.89,4.79 10.17,8.54 13.1,11.56 3.47,3.65 4.74,5.97 5.25,7.44 0.46,1.11 1.21,3.27 2.24,7.31 1.67,6.69 3.68,10.76 6.33,12.84 2.93,2.39 6.13,2.96 9.32,1.78 2.75,-1.13 5.79,-3.81 9.32,-8.18l15.03 -18.63c3.78,-4.79 5.66,-8.26 5.89,-11.02 0.23,-2.11 -0.28,-5.3 -3.96,-8.24 -2.65,-2.14 -7.23,-3.19 -13.87,-3.4 -3.73,-0.13 -6.25,-0.33 -8.16,-0.64 -1.24,-0.15 -3.6,-0.88 -7.9,-3.5 -3.63,-2.26 -8.29,-5.58 -14.13,-10.32l-65.78 -52.81 42.11 -52.37c7.59,-9.47 12.92,-15.26 15.78,-17.22 2.6,-1.85 4.63,-2.5 7.62,-2.11 4.09,0.51 9.21,2.55 15.21,6.13 6.13,3.68 15.34,10.42 27.31,20.05 17.58,14.13 30.88,25.97 39.63,35.18 8.39,9.01 13.85,16.96 16.16,23.65 1.65,4.81 2.83,10.96 3.68,18.17 0.93,8.34 2.57,13.2 5.22,15.29 2.47,2.01 5.02,2.57 7.54,1.9 2.24,-0.62 4.45,-2.39 6.87,-5.38 13.69,-17.12 20.64,-28.41 21.28,-34.62 0.64,-6.59 -4.68,-14.28 -16.27,-23.6z"/>
    <path class="fil0" d="M284.44 1504.53c7.31,30.55 18.66,57.83 33.92,81.92 15.26,24.04 42.52,53.84 81.69,89.31 39.12,35.47 63.96,62.72 74.43,81.64 10.45,18.97 15.7,38.22 15.7,57.7 0,27.18 -9.06,49.83 -27.18,67.92 -18.07,18.07 -40.12,27.13 -66.17,27.13 -22.06,0 -42.08,-6.87 -60.04,-20.59 -17.94,-13.69 -33.87,-33.72 -47.74,-60.02 0.31,41.54 5.77,74.61 16.37,99.04 10.55,24.48 27.62,43.73 50.88,57.73 23.37,13.98 54.38,22.26 93.17,24.81l2.99 15.7 -336.46 0 3.37 -15.7c52.07,0 92.42,-15.21 121.14,-45.61 28.72,-30.42 42.47,-75.74 41.36,-135.97 -12.71,26.9 -28.49,47.02 -47.33,60.46 -18.81,13.43 -40.07,20.15 -63.83,20.15 -25.48,0 -47.33,-9.19 -65.53,-27.59 -18.27,-18.38 -27.41,-40.43 -27.41,-66.22 0,-20.62 4.71,-39.25 14.03,-55.95 12.71,-23.21 33.38,-46.53 61.95,-69.98 28.59,-23.5 49.65,-42.85 63.18,-58.14 20.67,-23.45 35.72,-44.42 45.22,-62.82 9.45,-18.32 16.88,-40 22.29,-64.91z"/>
    <path class="fil0" d="M4687.2 1504.53c7.36,30.55 18.66,57.83 33.95,81.92 15.29,24.04 42.47,53.84 81.66,89.31 39.15,35.47 63.98,62.72 74.46,81.64 10.47,18.97 15.67,38.22 15.67,57.7 0,27.18 -9.06,49.83 -27.15,67.92 -18.12,18.07 -40.18,27.13 -66.22,27.13 -22.03,0 -42.03,-6.87 -59.99,-20.59 -17.99,-13.69 -33.87,-33.72 -47.72,-60.02 0.28,41.54 5.74,74.61 16.29,99.04 10.6,24.48 27.64,43.73 50.96,57.73 23.32,13.98 54.36,22.26 93.09,24.81l3.01 15.7 -336.46 0 3.37 -15.7c52.07,0 92.45,-15.21 121.17,-45.61 28.7,-30.42 42.47,-75.74 41.36,-135.97 -12.71,26.9 -28.49,47.02 -47.36,60.46 -18.76,13.43 -40.07,20.15 -63.8,20.15 -25.51,0 -47.3,-9.19 -65.55,-27.59 -18.22,-18.38 -27.36,-40.43 -27.36,-66.22 0,-20.62 4.66,-39.25 13.98,-55.95 12.77,-23.21 33.38,-46.53 61.97,-69.98 28.57,-23.5 49.62,-42.85 63.21,-58.14 20.62,-23.45 35.7,-44.42 45.14,-62.82 9.55,-18.32 16.96,-40 22.31,-64.91z"/>
    <path class="fil2" d="M2391.8 66.92c-0.39,-14.57 2.24,-24.68 7.8,-30.01 5.58,-5.35 16.63,-8.29 32.71,-8.7 2.11,-0.08 4.17,-0.08 6.2,-0.08 27.26,0 48.49,4.68 63.06,13.92 15.6,9.91 23.42,24.42 23.91,44.34 0.62,24.81 -10.14,43.91 -32.97,58.35 -22.49,14.28 -55.49,22.75 -98.11,25.14l-2.6 -102.97zm135.86 98.44c31.68,-20.2 47.3,-48.08 46.4,-82.92 -0.72,-29.06 -12.48,-50.6 -34.92,-64.06 -22.08,-13.31 -55.98,-19.23 -100.86,-18.27l-96.62 2.39c-7.52,0.21 -12.66,1.16 -15.73,2.96 -3.4,2.06 -5.15,5.38 -5.04,9.73 0.13,5.02 3.89,9.32 11.2,12.92 7.93,3.83 10.29,5.87 10.99,6.74 1.42,1.67 2.39,3.73 3.01,6.36 0.69,2.73 1.11,7.23 1.26,13.33l5.46 216.78c0.18,7.13 -0.23,12.41 -1.21,15.73 -0.9,3.06 -2.37,5.28 -4.45,6.69 -1.72,1.21 -3.99,2.65 -6.79,4.12 -8.18,4.79 -12.1,9.47 -11.99,14.36 0.15,5.69 3.14,8.34 5.58,9.57 2.78,1.36 7.21,2.08 13.54,2.08l61.36 -1.54c7.57,-0.18 12.71,-1.11 15.7,-2.81 2.39,-1.34 5.2,-4.12 5.1,-9.86 -0.1,-4.94 -4.3,-9.19 -12.71,-12.92l-1.03 -0.46c-1.62,-0.64 -3.76,-1.47 -6.36,-2.39 -5.46,-2.06 -7.46,-3.22 -8,-3.6 -1.49,-1.65 -2.55,-3.73 -3.24,-6.46 -0.75,-2.81 -1.21,-7.41 -1.36,-13.56l-1.8 -71.32c57.19,-2.65 101.79,-14 132.54,-33.59z"/>
   </g>
   <path class="fil2" d="M4699.34 2842.53c-8.13,6.36 -15.8,16.27 -22.75,29.57 -6.92,13.18 -12.25,28.03 -15.78,44.06 -6.54,29.21 -3.81,54.67 8,75.69 11.86,21.08 31.19,34.77 57.42,40.59 11.17,2.5 22.29,2.42 32.97,-0.26 10.78,-2.73 20.62,-7.85 29.11,-15.26 6.28,-5.3 12.15,-12.35 17.5,-21.03 5.38,-8.65 13.23,-24.58 23.21,-47.25 11.43,-26.1 22.16,-43.24 32.07,-50.93 9.63,-7.54 21.7,-9.78 36.16,-6.49 17.6,3.89 29.91,13.72 37.68,29.96 7.75,16.24 9.14,36.06 4.04,58.91 -3.29,14.77 -9.19,27.33 -17.5,37.34 -8.29,10.06 -19.53,18.17 -33.35,24.14 -3.53,1.49 -8.36,3.04 -14.93,4.63 -10.53,2.52 -16.57,6.82 -17.86,12.74 -1.06,4.56 -0.44,8.57 1.7,11.99 2.21,3.4 5.66,5.66 10.29,6.74 2.11,0.44 4.35,0.67 6.72,0.67 5.43,0 11.84,-1.18 18.92,-3.6 9.96,-3.35 19.84,-8.54 29.39,-15.49 11.2,-8.62 20.59,-19.17 28,-31.45 7.41,-12.33 13,-26.53 16.45,-42.31 7.31,-32.92 4.38,-61.85 -8.93,-85.94 -13.25,-24.19 -34.9,-39.76 -64.39,-46.3 -14.72,-3.32 -28.62,-3.06 -41.26,0.64 -12.61,3.78 -24.01,11.27 -33.79,22.19 -7.8,8.49 -16.68,24.71 -27.2,49.49 -5.35,12.23 -9.37,21.21 -12.35,27.46 -8.03,16.39 -16.86,27.82 -26.25,33.84 -9.19,5.95 -20.13,7.59 -32.74,4.74 -14.54,-3.24 -24.81,-10.55 -31.5,-22.31 -6.54,-11.71 -8.06,-25.97 -4.43,-42.29 2.14,-9.57 6,-18.58 11.48,-26.82 5.51,-8.24 12.84,-15.8 21.8,-22.44 5.4,-3.89 11.89,-7.95 19.97,-12.46 11.38,-6.38 13.41,-9.47 13.92,-11.61 0.95,-4.09 -0.51,-6.41 -1.83,-7.64 -1.08,-1.08 -3.4,-2.5 -11.14,-4.22l-6.79 -1.49c-10.37,-2.32 -17.14,-3.06 -20.85,-2.68 -3.96,0.51 -7.64,2.11 -11.17,4.86z"/>
  </g>
 </g>
</svg>
